<mxfile host="app.diagrams.net" modified="2020-07-13T14:56:35.779Z" agent="5.0 (Windows NT 10.0; Win64; x64) AppleWebKit/537.36 (KHTML, like Gecko) Chrome/83.0.4103.116 Safari/537.36" etag="MU3mFAVOLok2hFSE6MgO" version="13.4.1" type="github" pages="7">
  <diagram id="ru6Em6jfc7pzJqQjRWxT" name="PÃ¡gina-1">
    <mxGraphModel dx="868" dy="450" grid="1" gridSize="10" guides="1" tooltips="1" connect="1" arrows="1" fold="1" page="1" pageScale="1" pageWidth="827" pageHeight="1169" math="0" shadow="0">
      <root>
        <mxCell id="0" />
        <mxCell id="1" parent="0" />
        <mxCell id="uebY-7sm-ooD4ZuWbLZ9-1" value="O" style="ellipse;whiteSpace=wrap;html=1;aspect=fixed;fillColor=#60a917;strokeColor=#2D7600;fontColor=#ffffff;" parent="1" vertex="1">
          <mxGeometry y="230" width="40" height="40" as="geometry" />
        </mxCell>
        <mxCell id="uebY-7sm-ooD4ZuWbLZ9-2" value="A" style="ellipse;whiteSpace=wrap;html=1;aspect=fixed;fillColor=#60a917;strokeColor=#2D7600;fontColor=#ffffff;" parent="1" vertex="1">
          <mxGeometry x="100" y="110" width="40" height="40" as="geometry" />
        </mxCell>
        <mxCell id="uebY-7sm-ooD4ZuWbLZ9-6" value="D" style="ellipse;whiteSpace=wrap;html=1;aspect=fixed;fillColor=#60a917;strokeColor=#2D7600;fontColor=#ffffff;" parent="1" vertex="1">
          <mxGeometry x="250" y="110" width="40" height="40" as="geometry" />
        </mxCell>
        <mxCell id="uebY-7sm-ooD4ZuWbLZ9-8" value="G" style="ellipse;whiteSpace=wrap;html=1;aspect=fixed;fillColor=#60a917;strokeColor=#2D7600;fontColor=#ffffff;" parent="1" vertex="1">
          <mxGeometry x="440" y="110" width="40" height="40" as="geometry" />
        </mxCell>
        <mxCell id="uebY-7sm-ooD4ZuWbLZ9-12" value="H" style="ellipse;whiteSpace=wrap;html=1;aspect=fixed;fillColor=#60a917;strokeColor=#2D7600;fontColor=#ffffff;" parent="1" vertex="1">
          <mxGeometry x="440" y="230" width="40" height="40" as="geometry" />
        </mxCell>
        <mxCell id="uebY-7sm-ooD4ZuWbLZ9-16" value="F" style="ellipse;whiteSpace=wrap;html=1;aspect=fixed;fillColor=#60a917;strokeColor=#2D7600;fontColor=#ffffff;" parent="1" vertex="1">
          <mxGeometry x="300" y="230" width="40" height="40" as="geometry" />
        </mxCell>
        <mxCell id="uebY-7sm-ooD4ZuWbLZ9-20" value="E" style="ellipse;whiteSpace=wrap;html=1;aspect=fixed;fillColor=#60a917;strokeColor=#2D7600;fontColor=#ffffff;" parent="1" vertex="1">
          <mxGeometry x="240" y="350" width="40" height="40" as="geometry" />
        </mxCell>
        <mxCell id="uebY-7sm-ooD4ZuWbLZ9-22" value="B" style="ellipse;whiteSpace=wrap;html=1;aspect=fixed;fillColor=#60a917;strokeColor=#2D7600;fontColor=#ffffff;" parent="1" vertex="1">
          <mxGeometry x="120" y="350" width="40" height="40" as="geometry" />
        </mxCell>
        <mxCell id="uebY-7sm-ooD4ZuWbLZ9-18" value="C" style="ellipse;whiteSpace=wrap;html=1;aspect=fixed;fillColor=#60a917;strokeColor=#2D7600;fontColor=#ffffff;" parent="1" vertex="1">
          <mxGeometry x="180" y="230" width="40" height="40" as="geometry" />
        </mxCell>
        <mxCell id="uebY-7sm-ooD4ZuWbLZ9-14" value="I" style="ellipse;whiteSpace=wrap;html=1;aspect=fixed;fillColor=#60a917;strokeColor=#2D7600;fontColor=#ffffff;" parent="1" vertex="1">
          <mxGeometry x="440" y="350" width="40" height="40" as="geometry" />
        </mxCell>
        <mxCell id="uebY-7sm-ooD4ZuWbLZ9-10" value="T" style="ellipse;whiteSpace=wrap;html=1;aspect=fixed;fillColor=#60a917;strokeColor=#2D7600;fontColor=#ffffff;" parent="1" vertex="1">
          <mxGeometry x="610" y="230" width="40" height="40" as="geometry" />
        </mxCell>
        <mxCell id="uebY-7sm-ooD4ZuWbLZ9-26" value="" style="endArrow=none;html=1;entryX=0;entryY=1;entryDx=0;entryDy=0;" parent="1" target="uebY-7sm-ooD4ZuWbLZ9-2" edge="1">
          <mxGeometry width="50" height="50" relative="1" as="geometry">
            <mxPoint x="30" y="230" as="sourcePoint" />
            <mxPoint x="80" y="180" as="targetPoint" />
          </mxGeometry>
        </mxCell>
        <mxCell id="uebY-7sm-ooD4ZuWbLZ9-27" value="" style="endArrow=none;html=1;entryX=0;entryY=1;entryDx=0;entryDy=0;exitX=0.975;exitY=0.325;exitDx=0;exitDy=0;exitPerimeter=0;" parent="1" source="uebY-7sm-ooD4ZuWbLZ9-16" target="uebY-7sm-ooD4ZuWbLZ9-8" edge="1">
          <mxGeometry width="50" height="50" relative="1" as="geometry">
            <mxPoint x="340" y="240" as="sourcePoint" />
            <mxPoint x="450" y="140" as="targetPoint" />
            <Array as="points" />
          </mxGeometry>
        </mxCell>
        <mxCell id="uebY-7sm-ooD4ZuWbLZ9-28" value="" style="endArrow=none;html=1;entryX=0;entryY=1;entryDx=0;entryDy=0;" parent="1" target="uebY-7sm-ooD4ZuWbLZ9-18" edge="1">
          <mxGeometry width="50" height="50" relative="1" as="geometry">
            <mxPoint x="140" y="350" as="sourcePoint" />
            <mxPoint x="190" y="300" as="targetPoint" />
          </mxGeometry>
        </mxCell>
        <mxCell id="uebY-7sm-ooD4ZuWbLZ9-29" value="" style="endArrow=none;html=1;entryX=0;entryY=0.5;entryDx=0;entryDy=0;" parent="1" target="uebY-7sm-ooD4ZuWbLZ9-6" edge="1">
          <mxGeometry width="50" height="50" relative="1" as="geometry">
            <mxPoint x="140" y="130" as="sourcePoint" />
            <mxPoint x="190" y="80" as="targetPoint" />
          </mxGeometry>
        </mxCell>
        <mxCell id="uebY-7sm-ooD4ZuWbLZ9-30" value="" style="endArrow=none;html=1;entryX=0;entryY=0.5;entryDx=0;entryDy=0;" parent="1" target="uebY-7sm-ooD4ZuWbLZ9-8" edge="1">
          <mxGeometry width="50" height="50" relative="1" as="geometry">
            <mxPoint x="290" y="130" as="sourcePoint" />
            <mxPoint x="340" y="80" as="targetPoint" />
          </mxGeometry>
        </mxCell>
        <mxCell id="uebY-7sm-ooD4ZuWbLZ9-31" value="" style="endArrow=none;html=1;entryX=0;entryY=0;entryDx=0;entryDy=0;" parent="1" target="uebY-7sm-ooD4ZuWbLZ9-10" edge="1">
          <mxGeometry width="50" height="50" relative="1" as="geometry">
            <mxPoint x="480" y="130" as="sourcePoint" />
            <mxPoint x="530" y="80" as="targetPoint" />
          </mxGeometry>
        </mxCell>
        <mxCell id="uebY-7sm-ooD4ZuWbLZ9-32" value="" style="endArrow=none;html=1;" parent="1" target="uebY-7sm-ooD4ZuWbLZ9-10" edge="1">
          <mxGeometry width="50" height="50" relative="1" as="geometry">
            <mxPoint x="480" y="370" as="sourcePoint" />
            <mxPoint x="530" y="320" as="targetPoint" />
          </mxGeometry>
        </mxCell>
        <mxCell id="uebY-7sm-ooD4ZuWbLZ9-33" value="" style="endArrow=none;html=1;entryX=0;entryY=0.5;entryDx=0;entryDy=0;" parent="1" target="uebY-7sm-ooD4ZuWbLZ9-10" edge="1">
          <mxGeometry width="50" height="50" relative="1" as="geometry">
            <mxPoint x="480" y="250" as="sourcePoint" />
            <mxPoint x="530" y="200" as="targetPoint" />
          </mxGeometry>
        </mxCell>
        <mxCell id="uebY-7sm-ooD4ZuWbLZ9-34" value="" style="endArrow=none;html=1;entryX=0;entryY=0.5;entryDx=0;entryDy=0;" parent="1" target="uebY-7sm-ooD4ZuWbLZ9-18" edge="1">
          <mxGeometry width="50" height="50" relative="1" as="geometry">
            <mxPoint x="40" y="250" as="sourcePoint" />
            <mxPoint x="90" y="200" as="targetPoint" />
          </mxGeometry>
        </mxCell>
        <mxCell id="uebY-7sm-ooD4ZuWbLZ9-35" value="" style="endArrow=none;html=1;" parent="1" target="uebY-7sm-ooD4ZuWbLZ9-22" edge="1">
          <mxGeometry width="50" height="50" relative="1" as="geometry">
            <mxPoint x="30" y="270" as="sourcePoint" />
            <mxPoint x="80" y="220" as="targetPoint" />
          </mxGeometry>
        </mxCell>
        <mxCell id="uebY-7sm-ooD4ZuWbLZ9-36" value="" style="endArrow=none;html=1;entryX=0;entryY=0.75;entryDx=0;entryDy=0;entryPerimeter=0;" parent="1" target="uebY-7sm-ooD4ZuWbLZ9-20" edge="1">
          <mxGeometry width="50" height="50" relative="1" as="geometry">
            <mxPoint x="160" y="380" as="sourcePoint" />
            <mxPoint x="210" y="330" as="targetPoint" />
          </mxGeometry>
        </mxCell>
        <mxCell id="uebY-7sm-ooD4ZuWbLZ9-37" value="" style="endArrow=none;html=1;entryX=-0.025;entryY=0.75;entryDx=0;entryDy=0;entryPerimeter=0;" parent="1" target="uebY-7sm-ooD4ZuWbLZ9-14" edge="1">
          <mxGeometry width="50" height="50" relative="1" as="geometry">
            <mxPoint x="280" y="380" as="sourcePoint" />
            <mxPoint x="330" y="330" as="targetPoint" />
          </mxGeometry>
        </mxCell>
        <mxCell id="uebY-7sm-ooD4ZuWbLZ9-38" value="" style="endArrow=none;html=1;entryX=0;entryY=0.5;entryDx=0;entryDy=0;" parent="1" target="uebY-7sm-ooD4ZuWbLZ9-12" edge="1">
          <mxGeometry width="50" height="50" relative="1" as="geometry">
            <mxPoint x="340" y="250" as="sourcePoint" />
            <mxPoint x="390" y="200" as="targetPoint" />
          </mxGeometry>
        </mxCell>
        <mxCell id="uebY-7sm-ooD4ZuWbLZ9-39" value="" style="endArrow=none;html=1;entryX=0;entryY=0;entryDx=0;entryDy=0;" parent="1" target="uebY-7sm-ooD4ZuWbLZ9-18" edge="1">
          <mxGeometry width="50" height="50" relative="1" as="geometry">
            <mxPoint x="130" y="150" as="sourcePoint" />
            <mxPoint x="190" y="230" as="targetPoint" />
          </mxGeometry>
        </mxCell>
        <mxCell id="uebY-7sm-ooD4ZuWbLZ9-40" value="" style="endArrow=none;html=1;entryX=0;entryY=0.5;entryDx=0;entryDy=0;" parent="1" target="uebY-7sm-ooD4ZuWbLZ9-16" edge="1">
          <mxGeometry width="50" height="50" relative="1" as="geometry">
            <mxPoint x="220" y="250" as="sourcePoint" />
            <mxPoint x="270" y="200" as="targetPoint" />
          </mxGeometry>
        </mxCell>
        <mxCell id="uebY-7sm-ooD4ZuWbLZ9-41" value="" style="endArrow=none;html=1;" parent="1" edge="1">
          <mxGeometry width="50" height="50" relative="1" as="geometry">
            <mxPoint x="250" y="350" as="sourcePoint" />
            <mxPoint x="210" y="270" as="targetPoint" />
          </mxGeometry>
        </mxCell>
        <mxCell id="uebY-7sm-ooD4ZuWbLZ9-42" value="" style="endArrow=none;html=1;" parent="1" target="uebY-7sm-ooD4ZuWbLZ9-6" edge="1">
          <mxGeometry width="50" height="50" relative="1" as="geometry">
            <mxPoint x="210" y="230" as="sourcePoint" />
            <mxPoint x="260" y="180" as="targetPoint" />
          </mxGeometry>
        </mxCell>
        <mxCell id="uebY-7sm-ooD4ZuWbLZ9-43" value="" style="endArrow=none;html=1;entryX=0;entryY=1;entryDx=0;entryDy=0;" parent="1" target="uebY-7sm-ooD4ZuWbLZ9-16" edge="1">
          <mxGeometry width="50" height="50" relative="1" as="geometry">
            <mxPoint x="260" y="350" as="sourcePoint" />
            <mxPoint x="320" y="300" as="targetPoint" />
          </mxGeometry>
        </mxCell>
        <mxCell id="uebY-7sm-ooD4ZuWbLZ9-44" value="" style="endArrow=none;html=1;entryX=0;entryY=1;entryDx=0;entryDy=0;" parent="1" target="uebY-7sm-ooD4ZuWbLZ9-12" edge="1">
          <mxGeometry width="50" height="50" relative="1" as="geometry">
            <mxPoint x="280" y="360" as="sourcePoint" />
            <mxPoint x="330" y="310" as="targetPoint" />
          </mxGeometry>
        </mxCell>
        <mxCell id="uebY-7sm-ooD4ZuWbLZ9-45" value="" style="endArrow=none;html=1;exitX=0.35;exitY=0;exitDx=0;exitDy=0;exitPerimeter=0;entryX=1;entryY=1;entryDx=0;entryDy=0;" parent="1" source="uebY-7sm-ooD4ZuWbLZ9-16" target="uebY-7sm-ooD4ZuWbLZ9-6" edge="1">
          <mxGeometry width="50" height="50" relative="1" as="geometry">
            <mxPoint x="235" y="190" as="sourcePoint" />
            <mxPoint x="285" y="140" as="targetPoint" />
          </mxGeometry>
        </mxCell>
        <mxCell id="uebY-7sm-ooD4ZuWbLZ9-46" value="" style="endArrow=none;html=1;entryX=0.5;entryY=1;entryDx=0;entryDy=0;" parent="1" target="uebY-7sm-ooD4ZuWbLZ9-12" edge="1">
          <mxGeometry width="50" height="50" relative="1" as="geometry">
            <mxPoint x="460" y="350" as="sourcePoint" />
            <mxPoint x="510" y="300" as="targetPoint" />
          </mxGeometry>
        </mxCell>
        <mxCell id="uebY-7sm-ooD4ZuWbLZ9-47" value="" style="endArrow=none;html=1;exitX=0.5;exitY=0;exitDx=0;exitDy=0;" parent="1" source="uebY-7sm-ooD4ZuWbLZ9-12" edge="1">
          <mxGeometry width="50" height="50" relative="1" as="geometry">
            <mxPoint x="414" y="200" as="sourcePoint" />
            <mxPoint x="464" y="150" as="targetPoint" />
          </mxGeometry>
        </mxCell>
        <mxCell id="uebY-7sm-ooD4ZuWbLZ9-48" value="4" style="text;html=1;align=center;verticalAlign=middle;resizable=0;points=[];autosize=1;" parent="1" vertex="1">
          <mxGeometry x="60" y="183" width="20" height="20" as="geometry" />
        </mxCell>
        <mxCell id="uebY-7sm-ooD4ZuWbLZ9-49" value="6" style="text;html=1;align=center;verticalAlign=middle;resizable=0;points=[];autosize=1;" parent="1" vertex="1">
          <mxGeometry x="60" y="232" width="20" height="20" as="geometry" />
        </mxCell>
        <mxCell id="uebY-7sm-ooD4ZuWbLZ9-50" value="3" style="text;html=1;align=center;verticalAlign=middle;resizable=0;points=[];autosize=1;" parent="1" vertex="1">
          <mxGeometry x="60" y="281" width="20" height="20" as="geometry" />
        </mxCell>
        <mxCell id="uebY-7sm-ooD4ZuWbLZ9-51" value="6" style="text;html=1;align=center;verticalAlign=middle;resizable=0;points=[];autosize=1;" parent="1" vertex="1">
          <mxGeometry x="190" y="360" width="20" height="20" as="geometry" />
        </mxCell>
        <mxCell id="uebY-7sm-ooD4ZuWbLZ9-52" value="5" style="text;html=1;align=center;verticalAlign=middle;resizable=0;points=[];autosize=1;" parent="1" vertex="1">
          <mxGeometry x="370" y="365" width="20" height="20" as="geometry" />
        </mxCell>
        <mxCell id="uebY-7sm-ooD4ZuWbLZ9-53" value="4" style="text;html=1;align=center;verticalAlign=middle;resizable=0;points=[];autosize=1;" parent="1" vertex="1">
          <mxGeometry x="530" y="300" width="20" height="20" as="geometry" />
        </mxCell>
        <mxCell id="uebY-7sm-ooD4ZuWbLZ9-55" value="8" style="text;html=1;align=center;verticalAlign=middle;resizable=0;points=[];autosize=1;" parent="1" vertex="1">
          <mxGeometry x="530" y="230" width="20" height="20" as="geometry" />
        </mxCell>
        <mxCell id="uebY-7sm-ooD4ZuWbLZ9-56" value="7" style="text;html=1;align=center;verticalAlign=middle;resizable=0;points=[];autosize=1;" parent="1" vertex="1">
          <mxGeometry x="530" y="180" width="20" height="20" as="geometry" />
        </mxCell>
        <mxCell id="uebY-7sm-ooD4ZuWbLZ9-57" value="2" style="text;html=1;align=center;verticalAlign=middle;resizable=0;points=[];autosize=1;" parent="1" vertex="1">
          <mxGeometry x="460" y="183" width="20" height="20" as="geometry" />
        </mxCell>
        <mxCell id="uebY-7sm-ooD4ZuWbLZ9-58" value="8" style="text;html=1;align=center;verticalAlign=middle;resizable=0;points=[];autosize=1;" parent="1" vertex="1">
          <mxGeometry x="460" y="300" width="20" height="20" as="geometry" />
        </mxCell>
        <mxCell id="uebY-7sm-ooD4ZuWbLZ9-59" value="2" style="text;html=1;align=center;verticalAlign=middle;resizable=0;points=[];autosize=1;" parent="1" vertex="1">
          <mxGeometry x="360" y="281" width="20" height="20" as="geometry" />
        </mxCell>
        <mxCell id="uebY-7sm-ooD4ZuWbLZ9-60" value="5" style="text;html=1;align=center;verticalAlign=middle;resizable=0;points=[];autosize=1;" parent="1" vertex="1">
          <mxGeometry x="390" y="232" width="20" height="20" as="geometry" />
        </mxCell>
        <mxCell id="uebY-7sm-ooD4ZuWbLZ9-61" value="2" style="text;html=1;align=center;verticalAlign=middle;resizable=0;points=[];autosize=1;" parent="1" vertex="1">
          <mxGeometry x="377" y="172" width="20" height="20" as="geometry" />
        </mxCell>
        <mxCell id="uebY-7sm-ooD4ZuWbLZ9-63" value="4" style="text;html=1;align=center;verticalAlign=middle;resizable=0;points=[];autosize=1;" parent="1" vertex="1">
          <mxGeometry x="350" y="130" width="20" height="20" as="geometry" />
        </mxCell>
        <mxCell id="uebY-7sm-ooD4ZuWbLZ9-64" value="3" style="text;html=1;align=center;verticalAlign=middle;resizable=0;points=[];autosize=1;" parent="1" vertex="1">
          <mxGeometry x="190" y="130" width="20" height="20" as="geometry" />
        </mxCell>
        <mxCell id="uebY-7sm-ooD4ZuWbLZ9-65" value="4" style="text;html=1;align=center;verticalAlign=middle;resizable=0;points=[];autosize=1;" parent="1" vertex="1">
          <mxGeometry x="164" y="301" width="20" height="20" as="geometry" />
        </mxCell>
        <mxCell id="uebY-7sm-ooD4ZuWbLZ9-66" value="5" style="text;html=1;align=center;verticalAlign=middle;resizable=0;points=[];autosize=1;" parent="1" vertex="1">
          <mxGeometry x="150" y="172" width="20" height="20" as="geometry" />
        </mxCell>
        <mxCell id="uebY-7sm-ooD4ZuWbLZ9-68" value="2" style="text;html=1;align=center;verticalAlign=middle;resizable=0;points=[];autosize=1;" parent="1" vertex="1">
          <mxGeometry x="240" y="183" width="20" height="20" as="geometry" />
        </mxCell>
        <mxCell id="uebY-7sm-ooD4ZuWbLZ9-69" value="2" style="text;html=1;align=center;verticalAlign=middle;resizable=0;points=[];autosize=1;" parent="1" vertex="1">
          <mxGeometry x="250" y="230" width="20" height="20" as="geometry" />
        </mxCell>
        <mxCell id="uebY-7sm-ooD4ZuWbLZ9-70" value="5" style="text;html=1;align=center;verticalAlign=middle;resizable=0;points=[];autosize=1;" parent="1" vertex="1">
          <mxGeometry x="230" y="290" width="20" height="20" as="geometry" />
        </mxCell>
        <mxCell id="uebY-7sm-ooD4ZuWbLZ9-71" value="1" style="text;html=1;align=center;verticalAlign=middle;resizable=0;points=[];autosize=1;" parent="1" vertex="1">
          <mxGeometry x="290" y="290" width="20" height="20" as="geometry" />
        </mxCell>
        <mxCell id="uebY-7sm-ooD4ZuWbLZ9-72" value="2" style="text;html=1;align=center;verticalAlign=middle;resizable=0;points=[];autosize=1;" parent="1" vertex="1">
          <mxGeometry x="300" y="172" width="20" height="20" as="geometry" />
        </mxCell>
        <mxCell id="uebY-7sm-ooD4ZuWbLZ9-78" value="[18, I]" style="text;html=1;align=center;verticalAlign=middle;resizable=0;points=[];autosize=1;fillColor=#e51400;strokeColor=#B20000;fontColor=#ffffff;" parent="1" vertex="1">
          <mxGeometry x="660" y="240" width="50" height="20" as="geometry" />
        </mxCell>
        <mxCell id="uebY-7sm-ooD4ZuWbLZ9-79" value="[o, -]" style="text;html=1;align=center;verticalAlign=middle;resizable=0;points=[];autosize=1;" parent="1" vertex="1">
          <mxGeometry y="203" width="40" height="20" as="geometry" />
        </mxCell>
        <mxCell id="uebY-7sm-ooD4ZuWbLZ9-80" value="[4, O]" style="text;html=1;align=center;verticalAlign=middle;resizable=0;points=[];autosize=1;" parent="1" vertex="1">
          <mxGeometry x="100" y="80" width="40" height="20" as="geometry" />
        </mxCell>
        <mxCell id="uebY-7sm-ooD4ZuWbLZ9-81" value="[6, O]" style="text;html=1;align=center;verticalAlign=middle;resizable=0;points=[];autosize=1;fillColor=#60a917;strokeColor=#2D7600;fontColor=#ffffff;" parent="1" vertex="1">
          <mxGeometry x="180" y="210" width="40" height="20" as="geometry" />
        </mxCell>
        <mxCell id="uebY-7sm-ooD4ZuWbLZ9-82" value="[3, O]" style="text;html=1;align=center;verticalAlign=middle;resizable=0;points=[];autosize=1;" parent="1" vertex="1">
          <mxGeometry x="120" y="390" width="40" height="20" as="geometry" />
        </mxCell>
        <mxCell id="uebY-7sm-ooD4ZuWbLZ9-83" value="[7, B]" style="text;html=1;align=center;verticalAlign=middle;resizable=0;points=[];autosize=1;fillColor=#e51400;strokeColor=#B20000;fontColor=#ffffff;" parent="1" vertex="1">
          <mxGeometry x="180" y="190" width="40" height="20" as="geometry" />
        </mxCell>
        <mxCell id="uebY-7sm-ooD4ZuWbLZ9-84" value="[7, A]" style="text;html=1;align=center;verticalAlign=middle;resizable=0;points=[];autosize=1;fillColor=#60a917;strokeColor=#2D7600;fontColor=#ffffff;" parent="1" vertex="1">
          <mxGeometry x="250" y="90" width="40" height="20" as="geometry" />
        </mxCell>
        <mxCell id="uebY-7sm-ooD4ZuWbLZ9-85" value="[8, C]" style="text;html=1;align=center;verticalAlign=middle;resizable=0;points=[];autosize=1;fillColor=#e51400;strokeColor=#B20000;fontColor=#ffffff;" parent="1" vertex="1">
          <mxGeometry x="250" y="70" width="40" height="20" as="geometry" />
        </mxCell>
        <mxCell id="uebY-7sm-ooD4ZuWbLZ9-86" value="[9, B]" style="text;html=1;align=center;verticalAlign=middle;resizable=0;points=[];autosize=1;fillColor=#60a917;strokeColor=#2D7600;fontColor=#ffffff;" parent="1" vertex="1">
          <mxGeometry x="240" y="401" width="40" height="20" as="geometry" />
        </mxCell>
        <mxCell id="uebY-7sm-ooD4ZuWbLZ9-87" value="[11, C]" style="text;html=1;align=center;verticalAlign=middle;resizable=0;points=[];autosize=1;fillColor=#e51400;strokeColor=#B20000;fontColor=#ffffff;" parent="1" vertex="1">
          <mxGeometry x="235" y="421" width="50" height="20" as="geometry" />
        </mxCell>
        <mxCell id="uebY-7sm-ooD4ZuWbLZ9-88" value="[8, C]" style="text;html=1;align=center;verticalAlign=middle;resizable=0;points=[];autosize=1;fillColor=#60a917;strokeColor=#2D7600;fontColor=#ffffff;" parent="1" vertex="1">
          <mxGeometry x="310" y="192" width="40" height="20" as="geometry" />
        </mxCell>
        <mxCell id="uebY-7sm-ooD4ZuWbLZ9-89" value="[9, D]" style="text;html=1;align=center;verticalAlign=middle;resizable=0;points=[];autosize=1;fillColor=#e51400;strokeColor=#B20000;fontColor=#ffffff;" parent="1" vertex="1">
          <mxGeometry x="310" y="210" width="40" height="20" as="geometry" />
        </mxCell>
        <mxCell id="uebY-7sm-ooD4ZuWbLZ9-90" value="[11, D]" style="text;html=1;align=center;verticalAlign=middle;resizable=0;points=[];autosize=1;fillColor=#e51400;strokeColor=#B20000;fontColor=#ffffff;" parent="1" vertex="1">
          <mxGeometry x="435" y="90" width="50" height="20" as="geometry" />
        </mxCell>
        <mxCell id="uebY-7sm-ooD4ZuWbLZ9-91" value="[10, F]" style="text;html=1;align=center;verticalAlign=middle;resizable=0;points=[];autosize=1;fillColor=#60a917;strokeColor=#2D7600;fontColor=#ffffff;" parent="1" vertex="1">
          <mxGeometry x="435" y="70" width="50" height="20" as="geometry" />
        </mxCell>
        <mxCell id="uebY-7sm-ooD4ZuWbLZ9-92" value="[13, F]" style="text;html=1;align=center;verticalAlign=middle;resizable=0;points=[];autosize=1;fillColor=#e51400;strokeColor=#B20000;fontColor=#ffffff;" parent="1" vertex="1">
          <mxGeometry x="475" y="230" width="50" height="20" as="geometry" />
        </mxCell>
        <mxCell id="uebY-7sm-ooD4ZuWbLZ9-93" value="[11, E]" style="text;html=1;align=center;verticalAlign=middle;resizable=0;points=[];autosize=1;fillColor=#60a917;strokeColor=#2D7600;fontColor=#ffffff;" parent="1" vertex="1">
          <mxGeometry x="475" y="212" width="50" height="20" as="geometry" />
        </mxCell>
        <mxCell id="uebY-7sm-ooD4ZuWbLZ9-94" value="[14, E]" style="text;html=1;align=center;verticalAlign=middle;resizable=0;points=[];autosize=1;fillColor=#60a917;strokeColor=#2D7600;fontColor=#ffffff;" parent="1" vertex="1">
          <mxGeometry x="435" y="401" width="50" height="20" as="geometry" />
        </mxCell>
        <mxCell id="uebY-7sm-ooD4ZuWbLZ9-95" value="[19, H]" style="text;html=1;align=center;verticalAlign=middle;resizable=0;points=[];autosize=1;fillColor=#e51400;strokeColor=#B20000;fontColor=#ffffff;" parent="1" vertex="1">
          <mxGeometry x="660" y="220" width="50" height="20" as="geometry" />
        </mxCell>
        <mxCell id="uebY-7sm-ooD4ZuWbLZ9-96" value="[17, G]" style="text;html=1;align=center;verticalAlign=middle;resizable=0;points=[];autosize=1;fillColor=#60a917;strokeColor=#2D7600;fontColor=#ffffff;" parent="1" vertex="1">
          <mxGeometry x="660" y="200" width="50" height="20" as="geometry" />
        </mxCell>
      </root>
    </mxGraphModel>
  </diagram>
  <diagram id="18uwdTo51cuRAAyZD82E" name="PÃ¡gina-2">
    
    <mxGraphModel dx="868" dy="450" grid="1" gridSize="10" guides="1" tooltips="1" connect="1" arrows="1" fold="1" page="1" pageScale="1" pageWidth="827" pageHeight="1169" math="0" shadow="0">
      
      <root>
        
        <mxCell id="3EfdQWF4OUiYJCmOeNrU-0" />
        
        <mxCell id="3EfdQWF4OUiYJCmOeNrU-1" parent="3EfdQWF4OUiYJCmOeNrU-0" />
        
        <mxCell id="3EfdQWF4OUiYJCmOeNrU-8" value="" style="edgeStyle=orthogonalEdgeStyle;rounded=0;orthogonalLoop=1;jettySize=auto;html=1;" parent="3EfdQWF4OUiYJCmOeNrU-1" source="3EfdQWF4OUiYJCmOeNrU-3" target="3EfdQWF4OUiYJCmOeNrU-7" edge="1">
          
          <mxGeometry relative="1" as="geometry" />
          
        </mxCell>
        
        <mxCell id="3EfdQWF4OUiYJCmOeNrU-3" value="1" style="ellipse;whiteSpace=wrap;html=1;aspect=fixed;fillColor=#60a917;strokeColor=#2D7600;fontColor=#ffffff;" parent="3EfdQWF4OUiYJCmOeNrU-1" vertex="1">
          
          <mxGeometry y="460" width="50" height="50" as="geometry" />
          
        </mxCell>
        
        <mxCell id="3EfdQWF4OUiYJCmOeNrU-7" value="3" style="ellipse;whiteSpace=wrap;html=1;aspect=fixed;fillColor=#60a917;strokeColor=#2D7600;fontColor=#ffffff;" parent="3EfdQWF4OUiYJCmOeNrU-1" vertex="1">
          
          <mxGeometry x="140" y="460" width="50" height="50" as="geometry" />
          
        </mxCell>
        
        <mxCell id="3EfdQWF4OUiYJCmOeNrU-12" value="5" style="ellipse;whiteSpace=wrap;html=1;aspect=fixed;fillColor=#60a917;strokeColor=#2D7600;fontColor=#ffffff;" parent="3EfdQWF4OUiYJCmOeNrU-1" vertex="1">
          
          <mxGeometry x="270" y="410" width="50" height="50" as="geometry" />
          
        </mxCell>
        
        <mxCell id="3EfdQWF4OUiYJCmOeNrU-9" value="4" style="ellipse;whiteSpace=wrap;html=1;aspect=fixed;fillColor=#60a917;strokeColor=#2D7600;fontColor=#ffffff;" parent="3EfdQWF4OUiYJCmOeNrU-1" vertex="1">
          
          <mxGeometry x="140" y="560" width="50" height="50" as="geometry" />
          
        </mxCell>
        
        <mxCell id="3EfdQWF4OUiYJCmOeNrU-14" value="6" style="ellipse;whiteSpace=wrap;html=1;aspect=fixed;fillColor=#60a917;strokeColor=#2D7600;fontColor=#ffffff;" parent="3EfdQWF4OUiYJCmOeNrU-1" vertex="1">
          
          <mxGeometry x="270" y="520" width="50" height="50" as="geometry" />
          
        </mxCell>
        
        <mxCell id="3EfdQWF4OUiYJCmOeNrU-16" value="7" style="ellipse;whiteSpace=wrap;html=1;aspect=fixed;fillColor=#60a917;strokeColor=#2D7600;fontColor=#ffffff;" parent="3EfdQWF4OUiYJCmOeNrU-1" vertex="1">
          
          <mxGeometry x="400" y="470" width="50" height="50" as="geometry" />
          
        </mxCell>
        
        <mxCell id="3EfdQWF4OUiYJCmOeNrU-4" value="2" style="ellipse;whiteSpace=wrap;html=1;aspect=fixed;fillColor=#60a917;strokeColor=#2D7600;fontColor=#ffffff;" parent="3EfdQWF4OUiYJCmOeNrU-1" vertex="1">
          
          <mxGeometry x="140" y="370" width="50" height="50" as="geometry" />
          
        </mxCell>
        
        <mxCell id="3EfdQWF4OUiYJCmOeNrU-6" value="" style="endArrow=classic;html=1;exitX=1;exitY=0;exitDx=0;exitDy=0;entryX=-0.04;entryY=0.7;entryDx=0;entryDy=0;entryPerimeter=0;" parent="3EfdQWF4OUiYJCmOeNrU-1" source="3EfdQWF4OUiYJCmOeNrU-3" target="3EfdQWF4OUiYJCmOeNrU-4" edge="1">
          
          <mxGeometry width="50" height="50" relative="1" as="geometry">
            
            <mxPoint x="390" y="450" as="sourcePoint" />
            
            <mxPoint x="440" y="400" as="targetPoint" />
            
            <Array as="points" />
            
          </mxGeometry>
          
        </mxCell>
        
        <mxCell id="3EfdQWF4OUiYJCmOeNrU-18" value="" style="endArrow=classic;html=1;entryX=0;entryY=0;entryDx=0;entryDy=0;exitX=1;exitY=1;exitDx=0;exitDy=0;" parent="3EfdQWF4OUiYJCmOeNrU-1" source="3EfdQWF4OUiYJCmOeNrU-3" target="3EfdQWF4OUiYJCmOeNrU-9" edge="1">
          
          <mxGeometry width="50" height="50" relative="1" as="geometry">
            
            <mxPoint x="30" y="500" as="sourcePoint" />
            
            <mxPoint x="90" y="460" as="targetPoint" />
            
          </mxGeometry>
          
        </mxCell>
        
        <mxCell id="3EfdQWF4OUiYJCmOeNrU-19" value="" style="endArrow=classic;html=1;exitX=0.5;exitY=1;exitDx=0;exitDy=0;" parent="3EfdQWF4OUiYJCmOeNrU-1" source="3EfdQWF4OUiYJCmOeNrU-7" edge="1">
          
          <mxGeometry width="50" height="50" relative="1" as="geometry">
            
            <mxPoint x="180" y="510" as="sourcePoint" />
            
            <mxPoint x="165" y="559" as="targetPoint" />
            
          </mxGeometry>
          
        </mxCell>
        
        <mxCell id="3EfdQWF4OUiYJCmOeNrU-20" value="" style="endArrow=classic;html=1;exitX=1;exitY=0.8;exitDx=0;exitDy=0;exitPerimeter=0;entryX=0;entryY=0.28;entryDx=0;entryDy=0;entryPerimeter=0;" parent="3EfdQWF4OUiYJCmOeNrU-1" source="3EfdQWF4OUiYJCmOeNrU-12" target="3EfdQWF4OUiYJCmOeNrU-16" edge="1">
          
          <mxGeometry width="50" height="50" relative="1" as="geometry">
            
            <mxPoint x="390" y="510" as="sourcePoint" />
            
            <mxPoint x="390" y="480" as="targetPoint" />
            
          </mxGeometry>
          
        </mxCell>
        
        <mxCell id="3EfdQWF4OUiYJCmOeNrU-21" value="" style="endArrow=classic;html=1;exitX=1.02;exitY=0.34;exitDx=0;exitDy=0;exitPerimeter=0;" parent="3EfdQWF4OUiYJCmOeNrU-1" source="3EfdQWF4OUiYJCmOeNrU-14" edge="1">
          
          <mxGeometry width="50" height="50" relative="1" as="geometry">
            
            <mxPoint x="390" y="510" as="sourcePoint" />
            
            <mxPoint x="400" y="505" as="targetPoint" />
            
            <Array as="points" />
            
          </mxGeometry>
          
        </mxCell>
        
        <mxCell id="3EfdQWF4OUiYJCmOeNrU-22" value="" style="endArrow=classic;html=1;entryX=-0.02;entryY=0.72;entryDx=0;entryDy=0;entryPerimeter=0;" parent="3EfdQWF4OUiYJCmOeNrU-1" target="3EfdQWF4OUiYJCmOeNrU-12" edge="1">
          
          <mxGeometry width="50" height="50" relative="1" as="geometry">
            
            <mxPoint x="190" y="480" as="sourcePoint" />
            
            <mxPoint x="240" y="430" as="targetPoint" />
            
          </mxGeometry>
          
        </mxCell>
        
        <mxCell id="3EfdQWF4OUiYJCmOeNrU-23" value="" style="endArrow=classic;html=1;entryX=-0.06;entryY=0.32;entryDx=0;entryDy=0;exitX=1;exitY=1;exitDx=0;exitDy=0;entryPerimeter=0;" parent="3EfdQWF4OUiYJCmOeNrU-1" source="3EfdQWF4OUiYJCmOeNrU-7" target="3EfdQWF4OUiYJCmOeNrU-14" edge="1">
          
          <mxGeometry width="50" height="50" relative="1" as="geometry">
            
            <mxPoint x="190" y="500" as="sourcePoint" />
            
            <mxPoint x="240" y="450" as="targetPoint" />
            
          </mxGeometry>
          
        </mxCell>
        
        <mxCell id="3EfdQWF4OUiYJCmOeNrU-24" value="" style="endArrow=classic;html=1;" parent="3EfdQWF4OUiYJCmOeNrU-1" edge="1">
          
          <mxGeometry width="50" height="50" relative="1" as="geometry">
            
            <mxPoint x="190" y="590" as="sourcePoint" />
            
            <mxPoint x="270" y="560" as="targetPoint" />
            
          </mxGeometry>
          
        </mxCell>
        
        <mxCell id="3EfdQWF4OUiYJCmOeNrU-25" value="" style="endArrow=classic;html=1;entryX=-0.04;entryY=0.32;entryDx=0;entryDy=0;entryPerimeter=0;exitX=1;exitY=0.5;exitDx=0;exitDy=0;" parent="3EfdQWF4OUiYJCmOeNrU-1" source="3EfdQWF4OUiYJCmOeNrU-4" target="3EfdQWF4OUiYJCmOeNrU-12" edge="1">
          
          <mxGeometry width="50" height="50" relative="1" as="geometry">
            
            <mxPoint x="180" y="400" as="sourcePoint" />
            
            <mxPoint x="230" y="350" as="targetPoint" />
            
          </mxGeometry>
          
        </mxCell>
        
        <mxCell id="3EfdQWF4OUiYJCmOeNrU-26" value="6" style="text;html=1;align=center;verticalAlign=middle;resizable=0;points=[];autosize=1;" parent="3EfdQWF4OUiYJCmOeNrU-1" vertex="1">
          
          <mxGeometry x="50" y="425" width="20" height="20" as="geometry" />
          
        </mxCell>
        
        <mxCell id="3EfdQWF4OUiYJCmOeNrU-27" value="4" style="text;html=1;align=center;verticalAlign=middle;resizable=0;points=[];autosize=1;" parent="3EfdQWF4OUiYJCmOeNrU-1" vertex="1">
          
          <mxGeometry x="70" y="460" width="20" height="20" as="geometry" />
          
        </mxCell>
        
        <mxCell id="3EfdQWF4OUiYJCmOeNrU-28" value="1" style="text;html=1;align=center;verticalAlign=middle;resizable=0;points=[];autosize=1;" parent="3EfdQWF4OUiYJCmOeNrU-1" vertex="1">
          
          <mxGeometry x="70" y="500" width="20" height="20" as="geometry" />
          
        </mxCell>
        
        <mxCell id="3EfdQWF4OUiYJCmOeNrU-29" value="4" style="text;html=1;align=center;verticalAlign=middle;resizable=0;points=[];autosize=1;" parent="3EfdQWF4OUiYJCmOeNrU-1" vertex="1">
          
          <mxGeometry x="210" y="390" width="20" height="20" as="geometry" />
          
        </mxCell>
        
        <mxCell id="3EfdQWF4OUiYJCmOeNrU-30" value="1" style="text;html=1;align=center;verticalAlign=middle;resizable=0;points=[];autosize=1;" parent="3EfdQWF4OUiYJCmOeNrU-1" vertex="1">
          
          <mxGeometry x="200" y="445" width="20" height="20" as="geometry" />
          
        </mxCell>
        
        <mxCell id="3EfdQWF4OUiYJCmOeNrU-31" value="3" style="text;html=1;align=center;verticalAlign=middle;resizable=0;points=[];autosize=1;" parent="3EfdQWF4OUiYJCmOeNrU-1" vertex="1">
          
          <mxGeometry x="210" y="490" width="20" height="20" as="geometry" />
          
        </mxCell>
        
        <mxCell id="3EfdQWF4OUiYJCmOeNrU-33" value="3" style="text;html=1;align=center;verticalAlign=middle;resizable=0;points=[];autosize=1;" parent="3EfdQWF4OUiYJCmOeNrU-1" vertex="1">
          
          <mxGeometry x="170" y="520" width="20" height="20" as="geometry" />
          
        </mxCell>
        
        <mxCell id="3EfdQWF4OUiYJCmOeNrU-35" value="4" style="text;html=1;align=center;verticalAlign=middle;resizable=0;points=[];autosize=1;" parent="3EfdQWF4OUiYJCmOeNrU-1" vertex="1">
          
          <mxGeometry x="210" y="550" width="20" height="20" as="geometry" />
          
        </mxCell>
        
        <mxCell id="3EfdQWF4OUiYJCmOeNrU-36" value="4" style="text;html=1;align=center;verticalAlign=middle;resizable=0;points=[];autosize=1;" parent="3EfdQWF4OUiYJCmOeNrU-1" vertex="1">
          
          <mxGeometry x="365" y="443" width="20" height="20" as="geometry" />
          
        </mxCell>
        
        <mxCell id="3EfdQWF4OUiYJCmOeNrU-37" value="9" style="text;html=1;align=center;verticalAlign=middle;resizable=0;points=[];autosize=1;" parent="3EfdQWF4OUiYJCmOeNrU-1" vertex="1">
          
          <mxGeometry x="347" y="501" width="20" height="20" as="geometry" />
          
        </mxCell>
        
        <mxCell id="3EfdQWF4OUiYJCmOeNrU-38" value="[0, -]" style="text;html=1;align=center;verticalAlign=middle;resizable=0;points=[];autosize=1;" parent="3EfdQWF4OUiYJCmOeNrU-1" vertex="1">
          
          <mxGeometry x="5" y="440" width="40" height="20" as="geometry" />
          
        </mxCell>
        
        <mxCell id="3EfdQWF4OUiYJCmOeNrU-39" value="[6, 1]" style="text;html=1;align=center;verticalAlign=middle;resizable=0;points=[];autosize=1;fillColor=#60a917;strokeColor=#2D7600;fontColor=#ffffff;" parent="3EfdQWF4OUiYJCmOeNrU-1" vertex="1">
          
          <mxGeometry x="145" y="348" width="40" height="20" as="geometry" />
          
        </mxCell>
        
        <mxCell id="3EfdQWF4OUiYJCmOeNrU-40" value="[4, 1]" style="text;html=1;align=center;verticalAlign=middle;resizable=0;points=[];autosize=1;fillColor=#60a917;strokeColor=#2D7600;fontColor=#ffffff;" parent="3EfdQWF4OUiYJCmOeNrU-1" vertex="1">
          
          <mxGeometry x="140" y="440" width="40" height="20" as="geometry" />
          
        </mxCell>
        
        <mxCell id="3EfdQWF4OUiYJCmOeNrU-41" value="[1, 1]" style="text;html=1;align=center;verticalAlign=middle;resizable=0;points=[];autosize=1;fillColor=#60a917;strokeColor=#2D7600;fontColor=#ffffff;" parent="3EfdQWF4OUiYJCmOeNrU-1" vertex="1">
          
          <mxGeometry x="145" y="617" width="40" height="20" as="geometry" />
          
        </mxCell>
        
        <mxCell id="3EfdQWF4OUiYJCmOeNrU-42" value="[10,2]" style="text;html=1;align=center;verticalAlign=middle;resizable=0;points=[];autosize=1;fillColor=#e51400;strokeColor=#B20000;fontColor=#ffffff;" parent="3EfdQWF4OUiYJCmOeNrU-1" vertex="1">
          
          <mxGeometry x="294" y="389" width="50" height="20" as="geometry" />
          
        </mxCell>
        
        <mxCell id="3EfdQWF4OUiYJCmOeNrU-43" value="[5, 3]" style="text;html=1;align=center;verticalAlign=middle;resizable=0;points=[];autosize=1;fillColor=#60a917;strokeColor=#2D7600;fontColor=#ffffff;" parent="3EfdQWF4OUiYJCmOeNrU-1" vertex="1">
          
          <mxGeometry x="299" y="370" width="40" height="20" as="geometry" />
          
        </mxCell>
        
        <mxCell id="3EfdQWF4OUiYJCmOeNrU-44" value="[7, 3]" style="text;html=1;align=center;verticalAlign=middle;resizable=0;points=[];autosize=1;fillColor=#e51400;strokeColor=#B20000;fontColor=#ffffff;" parent="3EfdQWF4OUiYJCmOeNrU-1" vertex="1">
          
          <mxGeometry x="145" y="637" width="40" height="20" as="geometry" />
          
        </mxCell>
        
        <mxCell id="3EfdQWF4OUiYJCmOeNrU-45" value="[5, 4]" style="text;html=1;align=center;verticalAlign=middle;resizable=0;points=[];autosize=1;fillColor=#60a917;strokeColor=#2D7600;fontColor=#ffffff;" parent="3EfdQWF4OUiYJCmOeNrU-1" vertex="1">
          
          <mxGeometry x="290" y="570" width="40" height="20" as="geometry" />
          
        </mxCell>
        
        <mxCell id="3EfdQWF4OUiYJCmOeNrU-46" value="[7, 3]" style="text;html=1;align=center;verticalAlign=middle;resizable=0;points=[];autosize=1;fillColor=#e51400;strokeColor=#B20000;fontColor=#ffffff;" parent="3EfdQWF4OUiYJCmOeNrU-1" vertex="1">
          
          <mxGeometry x="290" y="590" width="40" height="20" as="geometry" />
          
        </mxCell>
        
        <mxCell id="3EfdQWF4OUiYJCmOeNrU-47" value="[9, 5]" style="text;html=1;align=center;verticalAlign=middle;resizable=0;points=[];autosize=1;fillColor=#60a917;strokeColor=#2D7600;fontColor=#ffffff;" parent="3EfdQWF4OUiYJCmOeNrU-1" vertex="1">
          
          <mxGeometry x="450" y="481" width="40" height="20" as="geometry" />
          
        </mxCell>
        
        <mxCell id="3EfdQWF4OUiYJCmOeNrU-48" value="[14, 6]" style="text;html=1;align=center;verticalAlign=middle;resizable=0;points=[];autosize=1;fillColor=#e51400;strokeColor=#B20000;fontColor=#ffffff;" parent="3EfdQWF4OUiYJCmOeNrU-1" vertex="1">
          
          <mxGeometry x="450" y="501" width="50" height="20" as="geometry" />
          
        </mxCell>
        
      </root>
      
    </mxGraphModel>
    
  </diagram>
  <diagram id="spoN134Cm5Gy_vSId6oQ" name="PÃ¡gina-3">
    
    <mxGraphModel dx="868" dy="450" grid="1" gridSize="10" guides="1" tooltips="1" connect="1" arrows="1" fold="1" page="1" pageScale="1" pageWidth="827" pageHeight="1169" math="0" shadow="0">
      
      <root>
        
        <mxCell id="Ykx93SZcsvCeq2v1q7AS-0" />
        
        <mxCell id="Ykx93SZcsvCeq2v1q7AS-1" parent="Ykx93SZcsvCeq2v1q7AS-0" />
        
        <mxCell id="Ykx93SZcsvCeq2v1q7AS-3" value="A" style="ellipse;whiteSpace=wrap;html=1;fillColor=#60a917;strokeColor=#2D7600;fontColor=#ffffff;" parent="Ykx93SZcsvCeq2v1q7AS-1" vertex="1">
          
          <mxGeometry x="30" y="310" width="50" height="50" as="geometry" />
          
        </mxCell>
        
        <mxCell id="Ykx93SZcsvCeq2v1q7AS-6" value="C" style="ellipse;whiteSpace=wrap;html=1;fillColor=#60a917;strokeColor=#2D7600;fontColor=#ffffff;" parent="Ykx93SZcsvCeq2v1q7AS-1" vertex="1">
          
          <mxGeometry x="160" y="400" width="50" height="50" as="geometry" />
          
        </mxCell>
        
        <mxCell id="Ykx93SZcsvCeq2v1q7AS-10" value="E" style="ellipse;whiteSpace=wrap;html=1;fillColor=#60a917;strokeColor=#2D7600;fontColor=#ffffff;" parent="Ykx93SZcsvCeq2v1q7AS-1" vertex="1">
          
          <mxGeometry x="320" y="400" width="50" height="50" as="geometry" />
          
        </mxCell>
        
        <mxCell id="Ykx93SZcsvCeq2v1q7AS-12" value="F" style="ellipse;whiteSpace=wrap;html=1;fillColor=#60a917;strokeColor=#2D7600;fontColor=#ffffff;" parent="Ykx93SZcsvCeq2v1q7AS-1" vertex="1">
          
          <mxGeometry x="450" y="330" width="50" height="50" as="geometry" />
          
        </mxCell>
        
        <mxCell id="Ykx93SZcsvCeq2v1q7AS-4" value="B" style="ellipse;whiteSpace=wrap;html=1;fillColor=#60a917;strokeColor=#2D7600;fontColor=#ffffff;" parent="Ykx93SZcsvCeq2v1q7AS-1" vertex="1">
          
          <mxGeometry x="160" y="240" width="50" height="50" as="geometry" />
          
        </mxCell>
        
        <mxCell id="Ykx93SZcsvCeq2v1q7AS-8" value="D" style="ellipse;whiteSpace=wrap;html=1;fillColor=#60a917;strokeColor=#2D7600;fontColor=#ffffff;" parent="Ykx93SZcsvCeq2v1q7AS-1" vertex="1">
          
          <mxGeometry x="320" y="240" width="50" height="50" as="geometry" />
          
        </mxCell>
        
        <mxCell id="Ykx93SZcsvCeq2v1q7AS-14" value="" style="endArrow=classic;html=1;entryX=0;entryY=0.5;entryDx=0;entryDy=0;exitX=1;exitY=0;exitDx=0;exitDy=0;" parent="Ykx93SZcsvCeq2v1q7AS-1" source="Ykx93SZcsvCeq2v1q7AS-3" target="Ykx93SZcsvCeq2v1q7AS-4" edge="1">
          
          <mxGeometry width="50" height="50" relative="1" as="geometry">
            
            <mxPoint x="70" y="320" as="sourcePoint" />
            
            <mxPoint x="120" y="270" as="targetPoint" />
            
          </mxGeometry>
          
        </mxCell>
        
        <mxCell id="Ykx93SZcsvCeq2v1q7AS-15" value="" style="endArrow=classic;html=1;entryX=0;entryY=0.5;entryDx=0;entryDy=0;" parent="Ykx93SZcsvCeq2v1q7AS-1" target="Ykx93SZcsvCeq2v1q7AS-8" edge="1">
          
          <mxGeometry width="50" height="50" relative="1" as="geometry">
            
            <mxPoint x="210" y="260" as="sourcePoint" />
            
            <mxPoint x="260" y="210" as="targetPoint" />
            
          </mxGeometry>
          
        </mxCell>
        
        <mxCell id="Ykx93SZcsvCeq2v1q7AS-16" value="" style="endArrow=classic;html=1;entryX=0;entryY=0.4;entryDx=0;entryDy=0;entryPerimeter=0;exitX=1;exitY=1;exitDx=0;exitDy=0;" parent="Ykx93SZcsvCeq2v1q7AS-1" source="Ykx93SZcsvCeq2v1q7AS-3" target="Ykx93SZcsvCeq2v1q7AS-6" edge="1">
          
          <mxGeometry width="50" height="50" relative="1" as="geometry">
            
            <mxPoint x="80" y="340" as="sourcePoint" />
            
            <mxPoint x="130" y="290" as="targetPoint" />
            
          </mxGeometry>
          
        </mxCell>
        
        <mxCell id="Ykx93SZcsvCeq2v1q7AS-17" value="" style="endArrow=classic;html=1;entryX=0;entryY=1;entryDx=0;entryDy=0;" parent="Ykx93SZcsvCeq2v1q7AS-1" target="Ykx93SZcsvCeq2v1q7AS-12" edge="1">
          
          <mxGeometry width="50" height="50" relative="1" as="geometry">
            
            <mxPoint x="370" y="420" as="sourcePoint" />
            
            <mxPoint x="420" y="370" as="targetPoint" />
            
          </mxGeometry>
          
        </mxCell>
        
        <mxCell id="Ykx93SZcsvCeq2v1q7AS-18" value="" style="endArrow=classic;html=1;entryX=0;entryY=0.5;entryDx=0;entryDy=0;exitX=1;exitY=0.5;exitDx=0;exitDy=0;" parent="Ykx93SZcsvCeq2v1q7AS-1" source="Ykx93SZcsvCeq2v1q7AS-6" target="Ykx93SZcsvCeq2v1q7AS-10" edge="1">
          
          <mxGeometry width="50" height="50" relative="1" as="geometry">
            
            <mxPoint x="210" y="420" as="sourcePoint" />
            
            <mxPoint x="260" y="370" as="targetPoint" />
            
          </mxGeometry>
          
        </mxCell>
        
        <mxCell id="Ykx93SZcsvCeq2v1q7AS-19" value="" style="endArrow=classic;html=1;entryX=0;entryY=1;entryDx=0;entryDy=0;exitX=0.7;exitY=0.04;exitDx=0;exitDy=0;exitPerimeter=0;" parent="Ykx93SZcsvCeq2v1q7AS-1" source="Ykx93SZcsvCeq2v1q7AS-6" target="Ykx93SZcsvCeq2v1q7AS-8" edge="1">
          
          <mxGeometry width="50" height="50" relative="1" as="geometry">
            
            <mxPoint x="200" y="410" as="sourcePoint" />
            
            <mxPoint x="250" y="360" as="targetPoint" />
            
          </mxGeometry>
          
        </mxCell>
        
        <mxCell id="Ykx93SZcsvCeq2v1q7AS-20" value="" style="endArrow=classic;html=1;entryX=0;entryY=0;entryDx=0;entryDy=0;exitX=1;exitY=1;exitDx=0;exitDy=0;" parent="Ykx93SZcsvCeq2v1q7AS-1" source="Ykx93SZcsvCeq2v1q7AS-8" target="Ykx93SZcsvCeq2v1q7AS-12" edge="1">
          
          <mxGeometry width="50" height="50" relative="1" as="geometry">
            
            <mxPoint x="360" y="277" as="sourcePoint" />
            
            <mxPoint x="420" y="220" as="targetPoint" />
            
          </mxGeometry>
          
        </mxCell>
        
        <mxCell id="Ykx93SZcsvCeq2v1q7AS-21" value="" style="endArrow=classic;html=1;entryX=0.5;entryY=0;entryDx=0;entryDy=0;" parent="Ykx93SZcsvCeq2v1q7AS-1" target="Ykx93SZcsvCeq2v1q7AS-10" edge="1">
          
          <mxGeometry width="50" height="50" relative="1" as="geometry">
            
            <mxPoint x="345" y="290" as="sourcePoint" />
            
            <mxPoint x="440" y="280" as="targetPoint" />
            
          </mxGeometry>
          
        </mxCell>
        
        <mxCell id="Ykx93SZcsvCeq2v1q7AS-22" value="" style="endArrow=classic;html=1;exitX=1;exitY=1;exitDx=0;exitDy=0;" parent="Ykx93SZcsvCeq2v1q7AS-1" source="Ykx93SZcsvCeq2v1q7AS-4" target="Ykx93SZcsvCeq2v1q7AS-10" edge="1">
          
          <mxGeometry width="50" height="50" relative="1" as="geometry">
            
            <mxPoint x="210" y="290" as="sourcePoint" />
            
            <mxPoint x="310" y="400" as="targetPoint" />
            
          </mxGeometry>
          
        </mxCell>
        
        <mxCell id="Ykx93SZcsvCeq2v1q7AS-24" value="7" style="text;html=1;align=center;verticalAlign=middle;resizable=0;points=[];autosize=1;" parent="Ykx93SZcsvCeq2v1q7AS-1" vertex="1">
          
          <mxGeometry x="94" y="380" width="20" height="20" as="geometry" />
          
        </mxCell>
        
        <mxCell id="Ykx93SZcsvCeq2v1q7AS-25" value="9" style="text;html=1;align=center;verticalAlign=middle;resizable=0;points=[];autosize=1;" parent="Ykx93SZcsvCeq2v1q7AS-1" vertex="1">
          
          <mxGeometry x="94" y="270" width="20" height="20" as="geometry" />
          
        </mxCell>
        
        <mxCell id="Ykx93SZcsvCeq2v1q7AS-26" value="6" style="text;html=1;align=center;verticalAlign=middle;resizable=0;points=[];autosize=1;" parent="Ykx93SZcsvCeq2v1q7AS-1" vertex="1">
          
          <mxGeometry x="250.5" y="430" width="20" height="20" as="geometry" />
          
        </mxCell>
        
        <mxCell id="Ykx93SZcsvCeq2v1q7AS-27" value="9" style="text;html=1;align=center;verticalAlign=middle;resizable=0;points=[];autosize=1;" parent="Ykx93SZcsvCeq2v1q7AS-1" vertex="1">
          
          <mxGeometry x="414" y="400" width="20" height="20" as="geometry" />
          
        </mxCell>
        
        <mxCell id="Ykx93SZcsvCeq2v1q7AS-28" value="7" style="text;html=1;align=center;verticalAlign=middle;resizable=0;points=[];autosize=1;" parent="Ykx93SZcsvCeq2v1q7AS-1" vertex="1">
          
          <mxGeometry x="255" y="243" width="20" height="20" as="geometry" />
          
        </mxCell>
        
        <mxCell id="Ykx93SZcsvCeq2v1q7AS-29" value="6" style="text;html=1;align=center;verticalAlign=middle;resizable=0;points=[];autosize=1;" parent="Ykx93SZcsvCeq2v1q7AS-1" vertex="1">
          
          <mxGeometry x="413" y="286" width="20" height="20" as="geometry" />
          
        </mxCell>
        
        <mxCell id="Ykx93SZcsvCeq2v1q7AS-30" value="3" style="text;html=1;align=center;verticalAlign=middle;resizable=0;points=[];autosize=1;" parent="Ykx93SZcsvCeq2v1q7AS-1" vertex="1">
          
          <mxGeometry x="350" y="340" width="20" height="20" as="geometry" />
          
        </mxCell>
        
        <mxCell id="Ykx93SZcsvCeq2v1q7AS-31" value="4" style="text;html=1;align=center;verticalAlign=middle;resizable=0;points=[];autosize=1;" parent="Ykx93SZcsvCeq2v1q7AS-1" vertex="1">
          
          <mxGeometry x="200" y="360" width="20" height="20" as="geometry" />
          
        </mxCell>
        
        <mxCell id="Ykx93SZcsvCeq2v1q7AS-32" value="2" style="text;html=1;align=center;verticalAlign=middle;resizable=0;points=[];autosize=1;" parent="Ykx93SZcsvCeq2v1q7AS-1" vertex="1">
          
          <mxGeometry x="200" y="300" width="20" height="20" as="geometry" />
          
        </mxCell>
        
        <mxCell id="Ykx93SZcsvCeq2v1q7AS-35" value="[9, A]" style="text;html=1;align=center;verticalAlign=middle;resizable=0;points=[];autosize=1;fillColor=#60a917;strokeColor=#2D7600;fontColor=#ffffff;" parent="Ykx93SZcsvCeq2v1q7AS-1" vertex="1">
          
          <mxGeometry x="165" y="220" width="40" height="20" as="geometry" />
          
        </mxCell>
        
        <mxCell id="Ykx93SZcsvCeq2v1q7AS-36" value="[7,A]" style="text;html=1;align=center;verticalAlign=middle;resizable=0;points=[];autosize=1;fillColor=#60a917;strokeColor=#2D7600;fontColor=#ffffff;" parent="Ykx93SZcsvCeq2v1q7AS-1" vertex="1">
          
          <mxGeometry x="160" y="450" width="40" height="20" as="geometry" />
          
        </mxCell>
        
        <mxCell id="Ykx93SZcsvCeq2v1q7AS-37" value="[16, B]" style="text;html=1;align=center;verticalAlign=middle;resizable=0;points=[];autosize=1;fillColor=#e51400;strokeColor=#B20000;fontColor=#ffffff;" parent="Ykx93SZcsvCeq2v1q7AS-1" vertex="1">
          
          <mxGeometry x="320" y="220" width="50" height="20" as="geometry" />
          
        </mxCell>
        
        <mxCell id="Ykx93SZcsvCeq2v1q7AS-38" value="[11, C]" style="text;html=1;align=center;verticalAlign=middle;resizable=0;points=[];autosize=1;fillColor=#60a917;strokeColor=#2D7600;fontColor=#ffffff;" parent="Ykx93SZcsvCeq2v1q7AS-1" vertex="1">
          
          <mxGeometry x="320" y="200" width="50" height="20" as="geometry" />
          
        </mxCell>
        
        <mxCell id="Ykx93SZcsvCeq2v1q7AS-39" value="[13, C]" style="text;html=1;align=center;verticalAlign=middle;resizable=0;points=[];autosize=1;fillColor=#e51400;strokeColor=#B20000;fontColor=#ffffff;" parent="Ykx93SZcsvCeq2v1q7AS-1" vertex="1">
          
          <mxGeometry x="325" y="450" width="50" height="20" as="geometry" />
          
        </mxCell>
        
        <mxCell id="Ykx93SZcsvCeq2v1q7AS-40" value="[11,B]" style="text;html=1;align=center;verticalAlign=middle;resizable=0;points=[];autosize=1;fillColor=#60a917;strokeColor=#2D7600;fontColor=#ffffff;" parent="Ykx93SZcsvCeq2v1q7AS-1" vertex="1">
          
          <mxGeometry x="325" y="490" width="50" height="20" as="geometry" />
          
        </mxCell>
        
        <mxCell id="Ykx93SZcsvCeq2v1q7AS-41" value="[14, D]" style="text;html=1;align=center;verticalAlign=middle;resizable=0;points=[];autosize=1;fillColor=#e51400;strokeColor=#B20000;fontColor=#ffffff;" parent="Ykx93SZcsvCeq2v1q7AS-1" vertex="1">
          
          <mxGeometry x="325" y="470" width="50" height="20" as="geometry" />
          
        </mxCell>
        
        <mxCell id="Ykx93SZcsvCeq2v1q7AS-42" value="[17, D]" style="text;html=1;align=center;verticalAlign=middle;resizable=0;points=[];autosize=1;fillColor=#60a917;strokeColor=#2D7600;fontColor=#ffffff;" parent="Ykx93SZcsvCeq2v1q7AS-1" vertex="1">
          
          <mxGeometry x="500" y="340" width="50" height="20" as="geometry" />
          
        </mxCell>
        
        <mxCell id="Ykx93SZcsvCeq2v1q7AS-43" value="[20, E]" style="text;html=1;align=center;verticalAlign=middle;resizable=0;points=[];autosize=1;fillColor=#e51400;strokeColor=#B20000;fontColor=#ffffff;" parent="Ykx93SZcsvCeq2v1q7AS-1" vertex="1">
          
          <mxGeometry x="500" y="360" width="50" height="20" as="geometry" />
          
        </mxCell>
        
        <mxCell id="Ykx93SZcsvCeq2v1q7AS-44" value="[0, -]" style="text;html=1;align=center;verticalAlign=middle;resizable=0;points=[];autosize=1;fillColor=#60a917;strokeColor=#2D7600;fontColor=#ffffff;" parent="Ykx93SZcsvCeq2v1q7AS-1" vertex="1">
          
          <mxGeometry x="35" y="286" width="40" height="20" as="geometry" />
          
        </mxCell>
        
      </root>
      
    </mxGraphModel>
    
  </diagram>
  <diagram id="cyJZgi1pMuVskuI60D-0" name="der">
    
    <mxGraphModel dx="868" dy="450" grid="1" gridSize="10" guides="1" tooltips="1" connect="1" arrows="1" fold="1" page="1" pageScale="1" pageWidth="827" pageHeight="1169" math="0" shadow="0">
      
      <root>
        
        <mxCell id="cTrEnyakcB4IcObjuPAe-0" />
        
        <mxCell id="cTrEnyakcB4IcObjuPAe-1" parent="cTrEnyakcB4IcObjuPAe-0" />
        
        <mxCell id="jidqP_ZvJs-qIgQQ4035-0" value="material" style="rounded=0;whiteSpace=wrap;html=1;" parent="cTrEnyakcB4IcObjuPAe-1" vertex="1">
          
          <mxGeometry x="590" y="260" width="110" height="50" as="geometry" />
          
        </mxCell>
        
        <mxCell id="jidqP_ZvJs-qIgQQ4035-1" value="proveedor&amp;nbsp;" style="rounded=0;whiteSpace=wrap;html=1;" parent="cTrEnyakcB4IcObjuPAe-1" vertex="1">
          
          <mxGeometry x="294" y="260" width="120" height="50" as="geometry" />
          
        </mxCell>
        
        <mxCell id="jidqP_ZvJs-qIgQQ4035-2" value="articulo&amp;nbsp;" style="rounded=0;whiteSpace=wrap;html=1;" parent="cTrEnyakcB4IcObjuPAe-1" vertex="1">
          
          <mxGeometry x="580" y="80" width="120" height="50" as="geometry" />
          
        </mxCell>
        
        <mxCell id="jidqP_ZvJs-qIgQQ4035-3" value="almacen" style="rounded=0;whiteSpace=wrap;html=1;" parent="cTrEnyakcB4IcObjuPAe-1" vertex="1">
          
          <mxGeometry x="294" y="77.5" width="120" height="50" as="geometry" />
          
        </mxCell>
        
        <mxCell id="jidqP_ZvJs-qIgQQ4035-4" value="cod" style="ellipse;whiteSpace=wrap;html=1;" parent="cTrEnyakcB4IcObjuPAe-1" vertex="1">
          
          <mxGeometry x="590" y="310" width="60" height="30" as="geometry" />
          
        </mxCell>
        
        <mxCell id="jidqP_ZvJs-qIgQQ4035-5" value="precio" style="ellipse;whiteSpace=wrap;html=1;" parent="cTrEnyakcB4IcObjuPAe-1" vertex="1">
          
          <mxGeometry x="530" y="50" width="60" height="30" as="geometry" />
          
        </mxCell>
        
        <mxCell id="jidqP_ZvJs-qIgQQ4035-6" value="desc." style="ellipse;whiteSpace=wrap;html=1;" parent="cTrEnyakcB4IcObjuPAe-1" vertex="1">
          
          <mxGeometry x="590" y="50" width="60" height="30" as="geometry" />
          
        </mxCell>
        
        <mxCell id="jidqP_ZvJs-qIgQQ4035-7" value="cod" style="ellipse;whiteSpace=wrap;html=1;" parent="cTrEnyakcB4IcObjuPAe-1" vertex="1">
          
          <mxGeometry x="650" y="50" width="60" height="30" as="geometry" />
          
        </mxCell>
        
        <mxCell id="jidqP_ZvJs-qIgQQ4035-8" value="responsable" style="ellipse;whiteSpace=wrap;html=1;" parent="cTrEnyakcB4IcObjuPAe-1" vertex="1">
          
          <mxGeometry x="355" y="47.5" width="70" height="30" as="geometry" />
          
        </mxCell>
        
        <mxCell id="jidqP_ZvJs-qIgQQ4035-9" value="nro" style="ellipse;whiteSpace=wrap;html=1;" parent="cTrEnyakcB4IcObjuPAe-1" vertex="1">
          
          <mxGeometry x="294" y="47.5" width="60" height="30" as="geometry" />
          
        </mxCell>
        
        <mxCell id="jidqP_ZvJs-qIgQQ4035-10" value="descr" style="ellipse;whiteSpace=wrap;html=1;" parent="cTrEnyakcB4IcObjuPAe-1" vertex="1">
          
          <mxGeometry x="650" y="310" width="60" height="30" as="geometry" />
          
        </mxCell>
        
        <mxCell id="jidqP_ZvJs-qIgQQ4035-11" value="nombre" style="ellipse;whiteSpace=wrap;html=1;" parent="cTrEnyakcB4IcObjuPAe-1" vertex="1">
          
          <mxGeometry x="234" y="255" width="60" height="30" as="geometry" />
          
        </mxCell>
        
        <mxCell id="jidqP_ZvJs-qIgQQ4035-12" value="cod" style="ellipse;whiteSpace=wrap;html=1;" parent="cTrEnyakcB4IcObjuPAe-1" vertex="1">
          
          <mxGeometry x="234" y="290" width="60" height="30" as="geometry" />
          
        </mxCell>
        
        <mxCell id="jidqP_ZvJs-qIgQQ4035-13" value="domicilio" style="ellipse;whiteSpace=wrap;html=1;" parent="cTrEnyakcB4IcObjuPAe-1" vertex="1">
          
          <mxGeometry x="295" y="310" width="60" height="30" as="geometry" />
          
        </mxCell>
        
        <mxCell id="jidqP_ZvJs-qIgQQ4035-14" value="ciudad" style="ellipse;whiteSpace=wrap;html=1;" parent="cTrEnyakcB4IcObjuPAe-1" vertex="1">
          
          <mxGeometry x="294" y="230" width="60" height="30" as="geometry" />
          
        </mxCell>
        
        <mxCell id="jidqP_ZvJs-qIgQQ4035-15" value="tiene" style="rhombus;whiteSpace=wrap;html=1;" parent="cTrEnyakcB4IcObjuPAe-1" vertex="1">
          
          <mxGeometry x="460" y="82.5" width="60" height="45" as="geometry" />
          
        </mxCell>
        
        <mxCell id="jidqP_ZvJs-qIgQQ4035-16" value="compuesto" style="rhombus;whiteSpace=wrap;html=1;" parent="cTrEnyakcB4IcObjuPAe-1" vertex="1">
          
          <mxGeometry x="610" y="170" width="70" height="50" as="geometry" />
          
        </mxCell>
        
        <mxCell id="jidqP_ZvJs-qIgQQ4035-17" value="provisto_por" style="rhombus;whiteSpace=wrap;html=1;" parent="cTrEnyakcB4IcObjuPAe-1" vertex="1">
          
          <mxGeometry x="460" y="255" width="80" height="55" as="geometry" />
          
        </mxCell>
        
      </root>
      
    </mxGraphModel>
    
  </diagram>
  <diagram id="0ydAPzOlwi-1Bk9n-y6I" name="PÃ¡gina-5">
    
    <mxGraphModel dx="868" dy="450" grid="1" gridSize="10" guides="1" tooltips="1" connect="1" arrows="1" fold="1" page="1" pageScale="1" pageWidth="827" pageHeight="1169" math="0" shadow="0">
      
      <root>
        
        <mxCell id="paR9goia78fD_svBqFSl-0" />
        
        <mxCell id="paR9goia78fD_svBqFSl-1" parent="paR9goia78fD_svBqFSl-0" />
        
        <mxCell id="paR9goia78fD_svBqFSl-13" value="articulo" style="swimlane;fontStyle=0;childLayout=stackLayout;horizontal=1;startSize=26;horizontalStack=0;resizeParent=1;resizeParentMax=0;resizeLast=0;collapsible=1;marginBottom=0;align=center;fontSize=14;" parent="paR9goia78fD_svBqFSl-1" vertex="1">
          
          <mxGeometry x="560" y="24" width="160" height="118" as="geometry" />
          
        </mxCell>
        
        <mxCell id="paR9goia78fD_svBqFSl-81" value="" style="edgeStyle=entityRelationEdgeStyle;fontSize=12;html=1;endArrow=ERmany;entryX=1.025;entryY=-0.077;entryDx=0;entryDy=0;entryPerimeter=0;" parent="paR9goia78fD_svBqFSl-13" target="paR9goia78fD_svBqFSl-62" edge="1">
          
          <mxGeometry width="100" height="100" relative="1" as="geometry">
            
            <mxPoint x="-10" y="82" as="sourcePoint" />
            
            <mxPoint x="90" y="-18" as="targetPoint" />
            
          </mxGeometry>
          
        </mxCell>
        
        <mxCell id="paR9goia78fD_svBqFSl-14" value="codigo" style="shape=partialRectangle;top=0;left=0;right=0;bottom=1;align=left;verticalAlign=middle;fillColor=none;spacingLeft=34;spacingRight=4;overflow=hidden;rotatable=0;points=[[0,0.5],[1,0.5]];portConstraint=eastwest;dropTarget=0;fontStyle=5;fontSize=12;" parent="paR9goia78fD_svBqFSl-13" vertex="1">
          
          <mxGeometry y="26" width="160" height="30" as="geometry" />
          
        </mxCell>
        
        <mxCell id="paR9goia78fD_svBqFSl-15" value="PK" style="shape=partialRectangle;top=0;left=0;bottom=0;fillColor=none;align=left;verticalAlign=middle;spacingLeft=4;spacingRight=4;overflow=hidden;rotatable=0;points=[];portConstraint=eastwest;part=1;fontSize=12;" parent="paR9goia78fD_svBqFSl-14" vertex="1" connectable="0">
          
          <mxGeometry width="30" height="30" as="geometry" />
          
        </mxCell>
        
        <mxCell id="paR9goia78fD_svBqFSl-16" value="desc." style="shape=partialRectangle;top=0;left=0;right=0;bottom=0;align=left;verticalAlign=top;fillColor=none;spacingLeft=34;spacingRight=4;overflow=hidden;rotatable=0;points=[[0,0.5],[1,0.5]];portConstraint=eastwest;dropTarget=0;fontSize=12;" parent="paR9goia78fD_svBqFSl-13" vertex="1">
          
          <mxGeometry y="56" width="160" height="26" as="geometry" />
          
        </mxCell>
        
        <mxCell id="paR9goia78fD_svBqFSl-17" value="" style="shape=partialRectangle;top=0;left=0;bottom=0;fillColor=none;align=left;verticalAlign=top;spacingLeft=4;spacingRight=4;overflow=hidden;rotatable=0;points=[];portConstraint=eastwest;part=1;fontSize=12;" parent="paR9goia78fD_svBqFSl-16" vertex="1" connectable="0">
          
          <mxGeometry width="30" height="26" as="geometry" />
          
        </mxCell>
        
        <mxCell id="paR9goia78fD_svBqFSl-18" value="precio" style="shape=partialRectangle;top=0;left=0;right=0;bottom=0;align=left;verticalAlign=top;fillColor=none;spacingLeft=34;spacingRight=4;overflow=hidden;rotatable=0;points=[[0,0.5],[1,0.5]];portConstraint=eastwest;dropTarget=0;fontSize=12;" parent="paR9goia78fD_svBqFSl-13" vertex="1">
          
          <mxGeometry y="82" width="160" height="26" as="geometry" />
          
        </mxCell>
        
        <mxCell id="paR9goia78fD_svBqFSl-19" value="" style="shape=partialRectangle;top=0;left=0;bottom=0;fillColor=none;align=left;verticalAlign=top;spacingLeft=4;spacingRight=4;overflow=hidden;rotatable=0;points=[];portConstraint=eastwest;part=1;fontSize=12;" parent="paR9goia78fD_svBqFSl-18" vertex="1" connectable="0">
          
          <mxGeometry width="30" height="26" as="geometry" />
          
        </mxCell>
        
        <mxCell id="paR9goia78fD_svBqFSl-22" value="" style="shape=partialRectangle;top=0;left=0;right=0;bottom=0;align=left;verticalAlign=top;fillColor=none;spacingLeft=34;spacingRight=4;overflow=hidden;rotatable=0;points=[[0,0.5],[1,0.5]];portConstraint=eastwest;dropTarget=0;fontSize=12;" parent="paR9goia78fD_svBqFSl-13" vertex="1">
          
          <mxGeometry y="108" width="160" height="10" as="geometry" />
          
        </mxCell>
        
        <mxCell id="paR9goia78fD_svBqFSl-23" value="" style="shape=partialRectangle;top=0;left=0;bottom=0;fillColor=none;align=left;verticalAlign=top;spacingLeft=4;spacingRight=4;overflow=hidden;rotatable=0;points=[];portConstraint=eastwest;part=1;fontSize=12;" parent="paR9goia78fD_svBqFSl-22" vertex="1" connectable="0">
          
          <mxGeometry width="30" height="10" as="geometry" />
          
        </mxCell>
        
        <mxCell id="paR9goia78fD_svBqFSl-64" value="compuesto" style="swimlane;fontStyle=0;childLayout=stackLayout;horizontal=1;startSize=26;horizontalStack=0;resizeParent=1;resizeParentMax=0;resizeLast=0;collapsible=1;marginBottom=0;align=center;fontSize=14;" parent="paR9goia78fD_svBqFSl-1" vertex="1">
          
          <mxGeometry x="560" y="200" width="160" height="86" as="geometry" />
          
        </mxCell>
        
        <mxCell id="paR9goia78fD_svBqFSl-65" value="cod_articulo" style="shape=partialRectangle;top=0;left=0;right=0;bottom=0;align=left;verticalAlign=middle;fillColor=none;spacingLeft=60;spacingRight=4;overflow=hidden;rotatable=0;points=[[0,0.5],[1,0.5]];portConstraint=eastwest;dropTarget=0;fontStyle=5;fontSize=12;" parent="paR9goia78fD_svBqFSl-64" vertex="1">
          
          <mxGeometry y="26" width="160" height="30" as="geometry" />
          
        </mxCell>
        
        <mxCell id="paR9goia78fD_svBqFSl-66" value="FK1" style="shape=partialRectangle;fontStyle=1;top=0;left=0;bottom=0;fillColor=none;align=left;verticalAlign=middle;spacingLeft=4;spacingRight=4;overflow=hidden;rotatable=0;points=[];portConstraint=eastwest;part=1;fontSize=12;" parent="paR9goia78fD_svBqFSl-65" vertex="1" connectable="0">
          
          <mxGeometry width="56" height="30" as="geometry" />
          
        </mxCell>
        
        <mxCell id="paR9goia78fD_svBqFSl-67" value="cod_material" style="shape=partialRectangle;top=0;left=0;right=0;bottom=1;align=left;verticalAlign=middle;fillColor=none;spacingLeft=60;spacingRight=4;overflow=hidden;rotatable=0;points=[[0,0.5],[1,0.5]];portConstraint=eastwest;dropTarget=0;fontStyle=5;fontSize=12;" parent="paR9goia78fD_svBqFSl-64" vertex="1">
          
          <mxGeometry y="56" width="160" height="30" as="geometry" />
          
        </mxCell>
        
        <mxCell id="paR9goia78fD_svBqFSl-68" value="FK2" style="shape=partialRectangle;fontStyle=1;top=0;left=0;bottom=0;fillColor=none;align=left;verticalAlign=middle;spacingLeft=4;spacingRight=4;overflow=hidden;rotatable=0;points=[];portConstraint=eastwest;part=1;fontSize=12;" parent="paR9goia78fD_svBqFSl-67" vertex="1" connectable="0">
          
          <mxGeometry width="56" height="30" as="geometry" />
          
        </mxCell>
        
        <mxCell id="paR9goia78fD_svBqFSl-24" value="material" style="swimlane;fontStyle=0;childLayout=stackLayout;horizontal=1;startSize=26;horizontalStack=0;resizeParent=1;resizeParentMax=0;resizeLast=0;collapsible=1;marginBottom=0;align=center;fontSize=14;" parent="paR9goia78fD_svBqFSl-1" vertex="1">
          
          <mxGeometry x="570" y="360" width="160" height="92" as="geometry" />
          
        </mxCell>
        
        <mxCell id="paR9goia78fD_svBqFSl-25" value="codigo" style="shape=partialRectangle;top=0;left=0;right=0;bottom=1;align=left;verticalAlign=middle;fillColor=none;spacingLeft=34;spacingRight=4;overflow=hidden;rotatable=0;points=[[0,0.5],[1,0.5]];portConstraint=eastwest;dropTarget=0;fontStyle=5;fontSize=12;" parent="paR9goia78fD_svBqFSl-24" vertex="1">
          
          <mxGeometry y="26" width="160" height="30" as="geometry" />
          
        </mxCell>
        
        <mxCell id="paR9goia78fD_svBqFSl-26" value="PK" style="shape=partialRectangle;top=0;left=0;bottom=0;fillColor=none;align=left;verticalAlign=middle;spacingLeft=4;spacingRight=4;overflow=hidden;rotatable=0;points=[];portConstraint=eastwest;part=1;fontSize=12;" parent="paR9goia78fD_svBqFSl-25" vertex="1" connectable="0">
          
          <mxGeometry width="30" height="30" as="geometry" />
          
        </mxCell>
        
        <mxCell id="paR9goia78fD_svBqFSl-27" value="desc." style="shape=partialRectangle;top=0;left=0;right=0;bottom=0;align=left;verticalAlign=top;fillColor=none;spacingLeft=34;spacingRight=4;overflow=hidden;rotatable=0;points=[[0,0.5],[1,0.5]];portConstraint=eastwest;dropTarget=0;fontSize=12;" parent="paR9goia78fD_svBqFSl-24" vertex="1">
          
          <mxGeometry y="56" width="160" height="26" as="geometry" />
          
        </mxCell>
        
        <mxCell id="paR9goia78fD_svBqFSl-28" value="" style="shape=partialRectangle;top=0;left=0;bottom=0;fillColor=none;align=left;verticalAlign=top;spacingLeft=4;spacingRight=4;overflow=hidden;rotatable=0;points=[];portConstraint=eastwest;part=1;fontSize=12;" parent="paR9goia78fD_svBqFSl-27" vertex="1" connectable="0">
          
          <mxGeometry width="30" height="26" as="geometry" />
          
        </mxCell>
        
        <mxCell id="paR9goia78fD_svBqFSl-33" value="" style="shape=partialRectangle;top=0;left=0;right=0;bottom=0;align=left;verticalAlign=top;fillColor=none;spacingLeft=34;spacingRight=4;overflow=hidden;rotatable=0;points=[[0,0.5],[1,0.5]];portConstraint=eastwest;dropTarget=0;fontSize=12;" parent="paR9goia78fD_svBqFSl-24" vertex="1">
          
          <mxGeometry y="82" width="160" height="10" as="geometry" />
          
        </mxCell>
        
        <mxCell id="paR9goia78fD_svBqFSl-34" value="" style="shape=partialRectangle;top=0;left=0;bottom=0;fillColor=none;align=left;verticalAlign=top;spacingLeft=4;spacingRight=4;overflow=hidden;rotatable=0;points=[];portConstraint=eastwest;part=1;fontSize=12;" parent="paR9goia78fD_svBqFSl-33" vertex="1" connectable="0">
          
          <mxGeometry width="30" height="10" as="geometry" />
          
        </mxCell>
        
        <mxCell id="paR9goia78fD_svBqFSl-57" value="tiene" style="swimlane;fontStyle=0;childLayout=stackLayout;horizontal=1;startSize=26;horizontalStack=0;resizeParent=1;resizeParentMax=0;resizeLast=0;collapsible=1;marginBottom=0;align=center;fontSize=14;" parent="paR9goia78fD_svBqFSl-1" vertex="1">
          
          <mxGeometry x="270" y="24" width="160" height="112" as="geometry" />
          
        </mxCell>
        
        <mxCell id="paR9goia78fD_svBqFSl-58" value="nro" style="shape=partialRectangle;top=0;left=0;right=0;bottom=0;align=left;verticalAlign=middle;fillColor=none;spacingLeft=60;spacingRight=4;overflow=hidden;rotatable=0;points=[[0,0.5],[1,0.5]];portConstraint=eastwest;dropTarget=0;fontStyle=5;fontSize=12;" parent="paR9goia78fD_svBqFSl-57" vertex="1">
          
          <mxGeometry y="26" width="160" height="30" as="geometry" />
          
        </mxCell>
        
        <mxCell id="paR9goia78fD_svBqFSl-59" value="PK,FK1" style="shape=partialRectangle;fontStyle=1;top=0;left=0;bottom=0;fillColor=none;align=left;verticalAlign=middle;spacingLeft=4;spacingRight=4;overflow=hidden;rotatable=0;points=[];portConstraint=eastwest;part=1;fontSize=12;" parent="paR9goia78fD_svBqFSl-58" vertex="1" connectable="0">
          
          <mxGeometry width="56" height="30" as="geometry" />
          
        </mxCell>
        
        <mxCell id="paR9goia78fD_svBqFSl-60" value="cod_articulo" style="shape=partialRectangle;top=0;left=0;right=0;bottom=1;align=left;verticalAlign=middle;fillColor=none;spacingLeft=60;spacingRight=4;overflow=hidden;rotatable=0;points=[[0,0.5],[1,0.5]];portConstraint=eastwest;dropTarget=0;fontStyle=5;fontSize=12;" parent="paR9goia78fD_svBqFSl-57" vertex="1">
          
          <mxGeometry y="56" width="160" height="30" as="geometry" />
          
        </mxCell>
        
        <mxCell id="paR9goia78fD_svBqFSl-61" value="PK,FK2" style="shape=partialRectangle;fontStyle=1;top=0;left=0;bottom=0;fillColor=none;align=left;verticalAlign=middle;spacingLeft=4;spacingRight=4;overflow=hidden;rotatable=0;points=[];portConstraint=eastwest;part=1;fontSize=12;" parent="paR9goia78fD_svBqFSl-60" vertex="1" connectable="0">
          
          <mxGeometry width="56" height="30" as="geometry" />
          
        </mxCell>
        
        <mxCell id="paR9goia78fD_svBqFSl-62" value="row 1" style="shape=partialRectangle;top=0;left=0;right=0;bottom=0;align=left;verticalAlign=top;fillColor=none;spacingLeft=60;spacingRight=4;overflow=hidden;rotatable=0;points=[[0,0.5],[1,0.5]];portConstraint=eastwest;dropTarget=0;fontSize=12;" parent="paR9goia78fD_svBqFSl-57" vertex="1">
          
          <mxGeometry y="86" width="160" height="26" as="geometry" />
          
        </mxCell>
        
        <mxCell id="paR9goia78fD_svBqFSl-63" value="" style="shape=partialRectangle;top=0;left=0;bottom=0;fillColor=none;align=left;verticalAlign=top;spacingLeft=4;spacingRight=4;overflow=hidden;rotatable=0;points=[];portConstraint=eastwest;part=1;fontSize=12;" parent="paR9goia78fD_svBqFSl-62" vertex="1" connectable="0">
          
          <mxGeometry width="56" height="26" as="geometry" />
          
        </mxCell>
        
        <mxCell id="paR9goia78fD_svBqFSl-2" value="almacenÂ " style="swimlane;fontStyle=0;childLayout=stackLayout;horizontal=1;startSize=26;horizontalStack=0;resizeParent=1;resizeParentMax=0;resizeLast=0;collapsible=1;marginBottom=0;align=center;fontSize=14;" parent="paR9goia78fD_svBqFSl-1" vertex="1">
          
          <mxGeometry x="40" y="34" width="160" height="92" as="geometry" />
          
        </mxCell>
        
        <mxCell id="paR9goia78fD_svBqFSl-3" value="nro" style="shape=partialRectangle;top=0;left=0;right=0;bottom=1;align=left;verticalAlign=middle;fillColor=none;spacingLeft=34;spacingRight=4;overflow=hidden;rotatable=0;points=[[0,0.5],[1,0.5]];portConstraint=eastwest;dropTarget=0;fontStyle=5;fontSize=12;" parent="paR9goia78fD_svBqFSl-2" vertex="1">
          
          <mxGeometry y="26" width="160" height="30" as="geometry" />
          
        </mxCell>
        
        <mxCell id="paR9goia78fD_svBqFSl-4" value="PK" style="shape=partialRectangle;top=0;left=0;bottom=0;fillColor=none;align=left;verticalAlign=middle;spacingLeft=4;spacingRight=4;overflow=hidden;rotatable=0;points=[];portConstraint=eastwest;part=1;fontSize=12;" parent="paR9goia78fD_svBqFSl-3" vertex="1" connectable="0">
          
          <mxGeometry width="30" height="30" as="geometry" />
          
        </mxCell>
        
        <mxCell id="paR9goia78fD_svBqFSl-5" value="responsable" style="shape=partialRectangle;top=0;left=0;right=0;bottom=0;align=left;verticalAlign=top;fillColor=none;spacingLeft=34;spacingRight=4;overflow=hidden;rotatable=0;points=[[0,0.5],[1,0.5]];portConstraint=eastwest;dropTarget=0;fontSize=12;" parent="paR9goia78fD_svBqFSl-2" vertex="1">
          
          <mxGeometry y="56" width="160" height="26" as="geometry" />
          
        </mxCell>
        
        <mxCell id="paR9goia78fD_svBqFSl-6" value="" style="shape=partialRectangle;top=0;left=0;bottom=0;fillColor=none;align=left;verticalAlign=top;spacingLeft=4;spacingRight=4;overflow=hidden;rotatable=0;points=[];portConstraint=eastwest;part=1;fontSize=12;" parent="paR9goia78fD_svBqFSl-5" vertex="1" connectable="0">
          
          <mxGeometry width="30" height="26" as="geometry" />
          
        </mxCell>
        
        <mxCell id="paR9goia78fD_svBqFSl-11" value="" style="shape=partialRectangle;top=0;left=0;right=0;bottom=0;align=left;verticalAlign=top;fillColor=none;spacingLeft=34;spacingRight=4;overflow=hidden;rotatable=0;points=[[0,0.5],[1,0.5]];portConstraint=eastwest;dropTarget=0;fontSize=12;" parent="paR9goia78fD_svBqFSl-2" vertex="1">
          
          <mxGeometry y="82" width="160" height="10" as="geometry" />
          
        </mxCell>
        
        <mxCell id="paR9goia78fD_svBqFSl-12" value="" style="shape=partialRectangle;top=0;left=0;bottom=0;fillColor=none;align=left;verticalAlign=top;spacingLeft=4;spacingRight=4;overflow=hidden;rotatable=0;points=[];portConstraint=eastwest;part=1;fontSize=12;" parent="paR9goia78fD_svBqFSl-11" vertex="1" connectable="0">
          
          <mxGeometry width="30" height="10" as="geometry" />
          
        </mxCell>
        
        <mxCell id="paR9goia78fD_svBqFSl-35" value="proveedor" style="swimlane;fontStyle=0;childLayout=stackLayout;horizontal=1;startSize=26;horizontalStack=0;resizeParent=1;resizeParentMax=0;resizeLast=0;collapsible=1;marginBottom=0;align=center;fontSize=14;" parent="paR9goia78fD_svBqFSl-1" vertex="1">
          
          <mxGeometry x="50" y="329" width="160" height="144" as="geometry" />
          
        </mxCell>
        
        <mxCell id="paR9goia78fD_svBqFSl-36" value="codigo" style="shape=partialRectangle;top=0;left=0;right=0;bottom=1;align=left;verticalAlign=middle;fillColor=none;spacingLeft=34;spacingRight=4;overflow=hidden;rotatable=0;points=[[0,0.5],[1,0.5]];portConstraint=eastwest;dropTarget=0;fontStyle=5;fontSize=12;" parent="paR9goia78fD_svBqFSl-35" vertex="1">
          
          <mxGeometry y="26" width="160" height="30" as="geometry" />
          
        </mxCell>
        
        <mxCell id="paR9goia78fD_svBqFSl-37" value="PK" style="shape=partialRectangle;top=0;left=0;bottom=0;fillColor=none;align=left;verticalAlign=middle;spacingLeft=4;spacingRight=4;overflow=hidden;rotatable=0;points=[];portConstraint=eastwest;part=1;fontSize=12;" parent="paR9goia78fD_svBqFSl-36" vertex="1" connectable="0">
          
          <mxGeometry width="30" height="30" as="geometry" />
          
        </mxCell>
        
        <mxCell id="paR9goia78fD_svBqFSl-38" value="domnicilio" style="shape=partialRectangle;top=0;left=0;right=0;bottom=0;align=left;verticalAlign=top;fillColor=none;spacingLeft=34;spacingRight=4;overflow=hidden;rotatable=0;points=[[0,0.5],[1,0.5]];portConstraint=eastwest;dropTarget=0;fontSize=12;" parent="paR9goia78fD_svBqFSl-35" vertex="1">
          
          <mxGeometry y="56" width="160" height="26" as="geometry" />
          
        </mxCell>
        
        <mxCell id="paR9goia78fD_svBqFSl-39" value="" style="shape=partialRectangle;top=0;left=0;bottom=0;fillColor=none;align=left;verticalAlign=top;spacingLeft=4;spacingRight=4;overflow=hidden;rotatable=0;points=[];portConstraint=eastwest;part=1;fontSize=12;" parent="paR9goia78fD_svBqFSl-38" vertex="1" connectable="0">
          
          <mxGeometry width="30" height="26" as="geometry" />
          
        </mxCell>
        
        <mxCell id="paR9goia78fD_svBqFSl-40" value="ciudad" style="shape=partialRectangle;top=0;left=0;right=0;bottom=0;align=left;verticalAlign=top;fillColor=none;spacingLeft=34;spacingRight=4;overflow=hidden;rotatable=0;points=[[0,0.5],[1,0.5]];portConstraint=eastwest;dropTarget=0;fontSize=12;" parent="paR9goia78fD_svBqFSl-35" vertex="1">
          
          <mxGeometry y="82" width="160" height="26" as="geometry" />
          
        </mxCell>
        
        <mxCell id="paR9goia78fD_svBqFSl-41" value="" style="shape=partialRectangle;top=0;left=0;bottom=0;fillColor=none;align=left;verticalAlign=top;spacingLeft=4;spacingRight=4;overflow=hidden;rotatable=0;points=[];portConstraint=eastwest;part=1;fontSize=12;" parent="paR9goia78fD_svBqFSl-40" vertex="1" connectable="0">
          
          <mxGeometry width="30" height="26" as="geometry" />
          
        </mxCell>
        
        <mxCell id="paR9goia78fD_svBqFSl-42" value="nombre" style="shape=partialRectangle;top=0;left=0;right=0;bottom=0;align=left;verticalAlign=top;fillColor=none;spacingLeft=34;spacingRight=4;overflow=hidden;rotatable=0;points=[[0,0.5],[1,0.5]];portConstraint=eastwest;dropTarget=0;fontSize=12;" parent="paR9goia78fD_svBqFSl-35" vertex="1">
          
          <mxGeometry y="108" width="160" height="26" as="geometry" />
          
        </mxCell>
        
        <mxCell id="paR9goia78fD_svBqFSl-43" value="" style="shape=partialRectangle;top=0;left=0;bottom=0;fillColor=none;align=left;verticalAlign=top;spacingLeft=4;spacingRight=4;overflow=hidden;rotatable=0;points=[];portConstraint=eastwest;part=1;fontSize=12;" parent="paR9goia78fD_svBqFSl-42" vertex="1" connectable="0">
          
          <mxGeometry width="30" height="26" as="geometry" />
          
        </mxCell>
        
        <mxCell id="paR9goia78fD_svBqFSl-44" value="" style="shape=partialRectangle;top=0;left=0;right=0;bottom=0;align=left;verticalAlign=top;fillColor=none;spacingLeft=34;spacingRight=4;overflow=hidden;rotatable=0;points=[[0,0.5],[1,0.5]];portConstraint=eastwest;dropTarget=0;fontSize=12;" parent="paR9goia78fD_svBqFSl-35" vertex="1">
          
          <mxGeometry y="134" width="160" height="10" as="geometry" />
          
        </mxCell>
        
        <mxCell id="paR9goia78fD_svBqFSl-45" value="" style="shape=partialRectangle;top=0;left=0;bottom=0;fillColor=none;align=left;verticalAlign=top;spacingLeft=4;spacingRight=4;overflow=hidden;rotatable=0;points=[];portConstraint=eastwest;part=1;fontSize=12;" parent="paR9goia78fD_svBqFSl-44" vertex="1" connectable="0">
          
          <mxGeometry width="30" height="10" as="geometry" />
          
        </mxCell>
        
        <mxCell id="paR9goia78fD_svBqFSl-71" value="provisto" style="swimlane;fontStyle=0;childLayout=stackLayout;horizontal=1;startSize=26;horizontalStack=0;resizeParent=1;resizeParentMax=0;resizeLast=0;collapsible=1;marginBottom=0;align=center;fontSize=14;" parent="paR9goia78fD_svBqFSl-1" vertex="1">
          
          <mxGeometry x="320" y="340" width="160" height="86" as="geometry" />
          
        </mxCell>
        
        <mxCell id="paR9goia78fD_svBqFSl-72" value="cod_material" style="shape=partialRectangle;top=0;left=0;right=0;bottom=0;align=left;verticalAlign=middle;fillColor=none;spacingLeft=60;spacingRight=4;overflow=hidden;rotatable=0;points=[[0,0.5],[1,0.5]];portConstraint=eastwest;dropTarget=0;fontStyle=5;fontSize=12;" parent="paR9goia78fD_svBqFSl-71" vertex="1">
          
          <mxGeometry y="26" width="160" height="30" as="geometry" />
          
        </mxCell>
        
        <mxCell id="paR9goia78fD_svBqFSl-73" value="FK1" style="shape=partialRectangle;fontStyle=1;top=0;left=0;bottom=0;fillColor=none;align=left;verticalAlign=middle;spacingLeft=4;spacingRight=4;overflow=hidden;rotatable=0;points=[];portConstraint=eastwest;part=1;fontSize=12;" parent="paR9goia78fD_svBqFSl-72" vertex="1" connectable="0">
          
          <mxGeometry width="56" height="30" as="geometry" />
          
        </mxCell>
        
        <mxCell id="paR9goia78fD_svBqFSl-74" value="cod_prov." style="shape=partialRectangle;top=0;left=0;right=0;bottom=1;align=left;verticalAlign=middle;fillColor=none;spacingLeft=60;spacingRight=4;overflow=hidden;rotatable=0;points=[[0,0.5],[1,0.5]];portConstraint=eastwest;dropTarget=0;fontStyle=5;fontSize=12;" parent="paR9goia78fD_svBqFSl-71" vertex="1">
          
          <mxGeometry y="56" width="160" height="30" as="geometry" />
          
        </mxCell>
        
        <mxCell id="paR9goia78fD_svBqFSl-75" value="FK2" style="shape=partialRectangle;fontStyle=1;top=0;left=0;bottom=0;fillColor=none;align=left;verticalAlign=middle;spacingLeft=4;spacingRight=4;overflow=hidden;rotatable=0;points=[];portConstraint=eastwest;part=1;fontSize=12;" parent="paR9goia78fD_svBqFSl-74" vertex="1" connectable="0">
          
          <mxGeometry width="56" height="30" as="geometry" />
          
        </mxCell>
        
        <mxCell id="paR9goia78fD_svBqFSl-79" value="" style="edgeStyle=entityRelationEdgeStyle;fontSize=12;html=1;endArrow=ERmany;entryX=0;entryY=0.033;entryDx=0;entryDy=0;entryPerimeter=0;" parent="paR9goia78fD_svBqFSl-1" target="paR9goia78fD_svBqFSl-58" edge="1">
          
          <mxGeometry width="100" height="100" relative="1" as="geometry">
            
            <mxPoint x="200" y="120" as="sourcePoint" />
            
            <mxPoint x="300" y="20" as="targetPoint" />
            
          </mxGeometry>
          
        </mxCell>
        
        <mxCell id="paR9goia78fD_svBqFSl-80" value="" style="edgeStyle=entityRelationEdgeStyle;fontSize=12;html=1;endArrow=ERmany;entryX=0;entryY=0.25;entryDx=0;entryDy=0;" parent="paR9goia78fD_svBqFSl-1" target="paR9goia78fD_svBqFSl-71" edge="1">
          
          <mxGeometry width="100" height="100" relative="1" as="geometry">
            
            <mxPoint x="210" y="456" as="sourcePoint" />
            
            <mxPoint x="310" y="356" as="targetPoint" />
            
          </mxGeometry>
          
        </mxCell>
        
        <mxCell id="paR9goia78fD_svBqFSl-82" value="" style="edgeStyle=entityRelationEdgeStyle;fontSize=12;html=1;endArrow=ERmany;exitX=1.019;exitY=-0.133;exitDx=0;exitDy=0;exitPerimeter=0;" parent="paR9goia78fD_svBqFSl-1" source="paR9goia78fD_svBqFSl-25" edge="1">
          
          <mxGeometry width="100" height="100" relative="1" as="geometry">
            
            <mxPoint x="460" y="360" as="sourcePoint" />
            
            <mxPoint x="560" y="260" as="targetPoint" />
            
          </mxGeometry>
          
        </mxCell>
        
        <mxCell id="paR9goia78fD_svBqFSl-83" value="Text" style="text;html=1;align=center;verticalAlign=middle;resizable=0;points=[];autosize=1;" parent="paR9goia78fD_svBqFSl-1" vertex="1">
          
          <mxGeometry x="426" y="206" width="40" height="20" as="geometry" />
          
        </mxCell>
        
      </root>
      
    </mxGraphModel>
    
  </diagram>
  <diagram id="u9-6-KXMoKMi6lkPbncH" name="PÃ¡gina-6">
    
    <mxGraphModel dx="868" dy="450" grid="1" gridSize="10" guides="1" tooltips="1" connect="1" arrows="1" fold="1" page="1" pageScale="1" pageWidth="827" pageHeight="1169" math="0" shadow="0">
      
      <root>
        
        <mxCell id="9UJeycFL-ftSe6p5Js39-0" />
        
        <mxCell id="9UJeycFL-ftSe6p5Js39-1" parent="9UJeycFL-ftSe6p5Js39-0" />
        
      </root>
      
    </mxGraphModel>
    
  </diagram>
  <diagram id="XU70RH8ZKzbdWdViqFPJ" name="PÃ¡gina-7">
    <mxGraphModel dx="1019" dy="465" grid="1" gridSize="10" guides="1" tooltips="1" connect="1" arrows="1" fold="1" page="1" pageScale="1" pageWidth="827" pageHeight="1169" math="0" shadow="0">
      <root>
        <mxCell id="PPe2y7tiPpHV3vtK38ji-0" />
        <mxCell id="PPe2y7tiPpHV3vtK38ji-1" parent="PPe2y7tiPpHV3vtK38ji-0" />
        <mxCell id="PPe2y7tiPpHV3vtK38ji-2" value="users" style="shape=table;startSize=30;container=1;collapsible=1;childLayout=tableLayout;fixedRows=1;rowLines=0;fontStyle=1;align=center;resizeLast=1;fillColor=#e1d5e7;strokeColor=#9673a6;" parent="PPe2y7tiPpHV3vtK38ji-1" vertex="1">
          <mxGeometry x="20" y="40" width="180" height="220" as="geometry" />
        </mxCell>
        <mxCell id="PPe2y7tiPpHV3vtK38ji-3" value="" style="shape=partialRectangle;collapsible=0;dropTarget=0;pointerEvents=0;fillColor=none;top=0;left=0;bottom=1;right=0;points=[[0,0.5],[1,0.5]];portConstraint=eastwest;" parent="PPe2y7tiPpHV3vtK38ji-2" vertex="1">
          <mxGeometry y="30" width="180" height="30" as="geometry" />
        </mxCell>
        <mxCell id="PPe2y7tiPpHV3vtK38ji-4" value="PK" style="shape=partialRectangle;connectable=0;fillColor=none;top=0;left=0;bottom=0;right=0;fontStyle=1;overflow=hidden;" parent="PPe2y7tiPpHV3vtK38ji-3" vertex="1">
          <mxGeometry width="30" height="30" as="geometry" />
        </mxCell>
        <mxCell id="PPe2y7tiPpHV3vtK38ji-5" value="id" style="shape=partialRectangle;connectable=0;fillColor=none;top=0;left=0;bottom=0;right=0;align=left;spacingLeft=6;fontStyle=5;overflow=hidden;" parent="PPe2y7tiPpHV3vtK38ji-3" vertex="1">
          <mxGeometry x="30" width="150" height="30" as="geometry" />
        </mxCell>
        <mxCell id="PPe2y7tiPpHV3vtK38ji-6" value="" style="shape=partialRectangle;collapsible=0;dropTarget=0;pointerEvents=0;fillColor=none;top=0;left=0;bottom=0;right=0;points=[[0,0.5],[1,0.5]];portConstraint=eastwest;" parent="PPe2y7tiPpHV3vtK38ji-2" vertex="1">
          <mxGeometry y="60" width="180" height="30" as="geometry" />
        </mxCell>
        <mxCell id="PPe2y7tiPpHV3vtK38ji-7" value="" style="shape=partialRectangle;connectable=0;fillColor=none;top=0;left=0;bottom=0;right=0;editable=1;overflow=hidden;" parent="PPe2y7tiPpHV3vtK38ji-6" vertex="1">
          <mxGeometry width="30" height="30" as="geometry" />
        </mxCell>
        <mxCell id="PPe2y7tiPpHV3vtK38ji-8" value="name" style="shape=partialRectangle;connectable=0;fillColor=none;top=0;left=0;bottom=0;right=0;align=left;spacingLeft=6;overflow=hidden;" parent="PPe2y7tiPpHV3vtK38ji-6" vertex="1">
          <mxGeometry x="30" width="150" height="30" as="geometry" />
        </mxCell>
        <mxCell id="PPe2y7tiPpHV3vtK38ji-9" value="" style="shape=partialRectangle;collapsible=0;dropTarget=0;pointerEvents=0;fillColor=none;top=0;left=0;bottom=0;right=0;points=[[0,0.5],[1,0.5]];portConstraint=eastwest;" parent="PPe2y7tiPpHV3vtK38ji-2" vertex="1">
          <mxGeometry y="90" width="180" height="30" as="geometry" />
        </mxCell>
        <mxCell id="PPe2y7tiPpHV3vtK38ji-10" value="" style="shape=partialRectangle;connectable=0;fillColor=none;top=0;left=0;bottom=0;right=0;editable=1;overflow=hidden;" parent="PPe2y7tiPpHV3vtK38ji-9" vertex="1">
          <mxGeometry width="30" height="30" as="geometry" />
        </mxCell>
        <mxCell id="PPe2y7tiPpHV3vtK38ji-11" value="email" style="shape=partialRectangle;connectable=0;fillColor=none;top=0;left=0;bottom=0;right=0;align=left;spacingLeft=6;overflow=hidden;" parent="PPe2y7tiPpHV3vtK38ji-9" vertex="1">
          <mxGeometry x="30" width="150" height="30" as="geometry" />
        </mxCell>
        <mxCell id="PPe2y7tiPpHV3vtK38ji-12" value="" style="shape=partialRectangle;collapsible=0;dropTarget=0;pointerEvents=0;fillColor=none;top=0;left=0;bottom=0;right=0;points=[[0,0.5],[1,0.5]];portConstraint=eastwest;" parent="PPe2y7tiPpHV3vtK38ji-2" vertex="1">
          <mxGeometry y="120" width="180" height="30" as="geometry" />
        </mxCell>
        <mxCell id="PPe2y7tiPpHV3vtK38ji-13" value="" style="shape=partialRectangle;connectable=0;fillColor=none;top=0;left=0;bottom=0;right=0;editable=1;overflow=hidden;" parent="PPe2y7tiPpHV3vtK38ji-12" vertex="1">
          <mxGeometry width="30" height="30" as="geometry" />
        </mxCell>
        <mxCell id="PPe2y7tiPpHV3vtK38ji-14" value="password" style="shape=partialRectangle;connectable=0;fillColor=none;top=0;left=0;bottom=0;right=0;align=left;spacingLeft=6;overflow=hidden;" parent="PPe2y7tiPpHV3vtK38ji-12" vertex="1">
          <mxGeometry x="30" width="150" height="30" as="geometry" />
        </mxCell>
        <mxCell id="-Gghjsd0OiJ2iin8IPF_-1" value="" style="shape=partialRectangle;collapsible=0;dropTarget=0;pointerEvents=0;fillColor=none;top=0;left=0;bottom=0;right=0;points=[[0,0.5],[1,0.5]];portConstraint=eastwest;" vertex="1" parent="PPe2y7tiPpHV3vtK38ji-2">
          <mxGeometry y="150" width="180" height="30" as="geometry" />
        </mxCell>
        <mxCell id="-Gghjsd0OiJ2iin8IPF_-2" value="" style="shape=partialRectangle;connectable=0;fillColor=none;top=0;left=0;bottom=0;right=0;editable=1;overflow=hidden;" vertex="1" parent="-Gghjsd0OiJ2iin8IPF_-1">
          <mxGeometry width="30" height="30" as="geometry" />
        </mxCell>
        <mxCell id="-Gghjsd0OiJ2iin8IPF_-3" value="admin" style="shape=partialRectangle;connectable=0;fillColor=none;top=0;left=0;bottom=0;right=0;align=left;spacingLeft=6;overflow=hidden;" vertex="1" parent="-Gghjsd0OiJ2iin8IPF_-1">
          <mxGeometry x="30" width="150" height="30" as="geometry" />
        </mxCell>
        <mxCell id="PPe2y7tiPpHV3vtK38ji-119" value="" style="shape=partialRectangle;collapsible=0;dropTarget=0;pointerEvents=0;fillColor=none;top=0;left=0;bottom=0;right=0;points=[[0,0.5],[1,0.5]];portConstraint=eastwest;" parent="PPe2y7tiPpHV3vtK38ji-2" vertex="1">
          <mxGeometry y="180" width="180" height="30" as="geometry" />
        </mxCell>
        <mxCell id="PPe2y7tiPpHV3vtK38ji-120" value="" style="shape=partialRectangle;connectable=0;fillColor=none;top=0;left=0;bottom=0;right=0;editable=1;overflow=hidden;" parent="PPe2y7tiPpHV3vtK38ji-119" vertex="1">
          <mxGeometry width="30" height="30" as="geometry" />
        </mxCell>
        <mxCell id="PPe2y7tiPpHV3vtK38ji-121" value="promocionÂ " style="shape=partialRectangle;connectable=0;fillColor=none;top=0;left=0;bottom=0;right=0;align=left;spacingLeft=6;overflow=hidden;" parent="PPe2y7tiPpHV3vtK38ji-119" vertex="1">
          <mxGeometry x="30" width="150" height="30" as="geometry" />
        </mxCell>
        <mxCell id="PPe2y7tiPpHV3vtK38ji-15" value="products" style="shape=table;startSize=30;container=1;collapsible=1;childLayout=tableLayout;fixedRows=1;rowLines=0;fontStyle=1;align=center;resizeLast=1;fillColor=#e1d5e7;strokeColor=#9673a6;" parent="PPe2y7tiPpHV3vtK38ji-1" vertex="1">
          <mxGeometry x="600" y="10" width="170" height="300" as="geometry" />
        </mxCell>
        <mxCell id="PPe2y7tiPpHV3vtK38ji-16" value="" style="shape=partialRectangle;collapsible=0;dropTarget=0;pointerEvents=0;fillColor=none;top=0;left=0;bottom=1;right=0;points=[[0,0.5],[1,0.5]];portConstraint=eastwest;" parent="PPe2y7tiPpHV3vtK38ji-15" vertex="1">
          <mxGeometry y="30" width="170" height="30" as="geometry" />
        </mxCell>
        <mxCell id="PPe2y7tiPpHV3vtK38ji-17" value="PK" style="shape=partialRectangle;connectable=0;fillColor=none;top=0;left=0;bottom=0;right=0;fontStyle=1;overflow=hidden;" parent="PPe2y7tiPpHV3vtK38ji-16" vertex="1">
          <mxGeometry width="30" height="30" as="geometry" />
        </mxCell>
        <mxCell id="PPe2y7tiPpHV3vtK38ji-18" value="id" style="shape=partialRectangle;connectable=0;fillColor=none;top=0;left=0;bottom=0;right=0;align=left;spacingLeft=6;fontStyle=5;overflow=hidden;" parent="PPe2y7tiPpHV3vtK38ji-16" vertex="1">
          <mxGeometry x="30" width="140" height="30" as="geometry" />
        </mxCell>
        <mxCell id="PPe2y7tiPpHV3vtK38ji-19" value="" style="shape=partialRectangle;collapsible=0;dropTarget=0;pointerEvents=0;fillColor=none;top=0;left=0;bottom=0;right=0;points=[[0,0.5],[1,0.5]];portConstraint=eastwest;" parent="PPe2y7tiPpHV3vtK38ji-15" vertex="1">
          <mxGeometry y="60" width="170" height="30" as="geometry" />
        </mxCell>
        <mxCell id="PPe2y7tiPpHV3vtK38ji-20" value="" style="shape=partialRectangle;connectable=0;fillColor=none;top=0;left=0;bottom=0;right=0;editable=1;overflow=hidden;" parent="PPe2y7tiPpHV3vtK38ji-19" vertex="1">
          <mxGeometry width="30" height="30" as="geometry" />
        </mxCell>
        <mxCell id="PPe2y7tiPpHV3vtK38ji-21" value="name" style="shape=partialRectangle;connectable=0;fillColor=none;top=0;left=0;bottom=0;right=0;align=left;spacingLeft=6;overflow=hidden;" parent="PPe2y7tiPpHV3vtK38ji-19" vertex="1">
          <mxGeometry x="30" width="140" height="30" as="geometry" />
        </mxCell>
        <mxCell id="PPe2y7tiPpHV3vtK38ji-22" value="" style="shape=partialRectangle;collapsible=0;dropTarget=0;pointerEvents=0;fillColor=none;top=0;left=0;bottom=0;right=0;points=[[0,0.5],[1,0.5]];portConstraint=eastwest;" parent="PPe2y7tiPpHV3vtK38ji-15" vertex="1">
          <mxGeometry y="90" width="170" height="30" as="geometry" />
        </mxCell>
        <mxCell id="PPe2y7tiPpHV3vtK38ji-23" value="" style="shape=partialRectangle;connectable=0;fillColor=none;top=0;left=0;bottom=0;right=0;editable=1;overflow=hidden;" parent="PPe2y7tiPpHV3vtK38ji-22" vertex="1">
          <mxGeometry width="30" height="30" as="geometry" />
        </mxCell>
        <mxCell id="PPe2y7tiPpHV3vtK38ji-24" value="price" style="shape=partialRectangle;connectable=0;fillColor=none;top=0;left=0;bottom=0;right=0;align=left;spacingLeft=6;overflow=hidden;" parent="PPe2y7tiPpHV3vtK38ji-22" vertex="1">
          <mxGeometry x="30" width="140" height="30" as="geometry" />
        </mxCell>
        <mxCell id="PPe2y7tiPpHV3vtK38ji-25" value="" style="shape=partialRectangle;collapsible=0;dropTarget=0;pointerEvents=0;fillColor=none;top=0;left=0;bottom=0;right=0;points=[[0,0.5],[1,0.5]];portConstraint=eastwest;" parent="PPe2y7tiPpHV3vtK38ji-15" vertex="1">
          <mxGeometry y="120" width="170" height="30" as="geometry" />
        </mxCell>
        <mxCell id="PPe2y7tiPpHV3vtK38ji-26" value="" style="shape=partialRectangle;connectable=0;fillColor=none;top=0;left=0;bottom=0;right=0;editable=1;overflow=hidden;" parent="PPe2y7tiPpHV3vtK38ji-25" vertex="1">
          <mxGeometry width="30" height="30" as="geometry" />
        </mxCell>
        <mxCell id="PPe2y7tiPpHV3vtK38ji-27" value="stock" style="shape=partialRectangle;connectable=0;fillColor=none;top=0;left=0;bottom=0;right=0;align=left;spacingLeft=6;overflow=hidden;" parent="PPe2y7tiPpHV3vtK38ji-25" vertex="1">
          <mxGeometry x="30" width="140" height="30" as="geometry" />
        </mxCell>
        <mxCell id="PPe2y7tiPpHV3vtK38ji-83" value="" style="shape=partialRectangle;collapsible=0;dropTarget=0;pointerEvents=0;fillColor=none;top=0;left=0;bottom=0;right=0;points=[[0,0.5],[1,0.5]];portConstraint=eastwest;" parent="PPe2y7tiPpHV3vtK38ji-15" vertex="1">
          <mxGeometry y="150" width="170" height="30" as="geometry" />
        </mxCell>
        <mxCell id="PPe2y7tiPpHV3vtK38ji-84" value="" style="shape=partialRectangle;connectable=0;fillColor=none;top=0;left=0;bottom=0;right=0;editable=1;overflow=hidden;" parent="PPe2y7tiPpHV3vtK38ji-83" vertex="1">
          <mxGeometry width="30" height="30" as="geometry" />
        </mxCell>
        <mxCell id="PPe2y7tiPpHV3vtK38ji-85" value="especification" style="shape=partialRectangle;connectable=0;fillColor=none;top=0;left=0;bottom=0;right=0;align=left;spacingLeft=6;overflow=hidden;" parent="PPe2y7tiPpHV3vtK38ji-83" vertex="1">
          <mxGeometry x="30" width="140" height="30" as="geometry" />
        </mxCell>
        <mxCell id="PPe2y7tiPpHV3vtK38ji-87" value="" style="shape=partialRectangle;collapsible=0;dropTarget=0;pointerEvents=0;fillColor=none;top=0;left=0;bottom=0;right=0;points=[[0,0.5],[1,0.5]];portConstraint=eastwest;" parent="PPe2y7tiPpHV3vtK38ji-15" vertex="1">
          <mxGeometry y="180" width="170" height="30" as="geometry" />
        </mxCell>
        <mxCell id="PPe2y7tiPpHV3vtK38ji-88" value="" style="shape=partialRectangle;connectable=0;fillColor=none;top=0;left=0;bottom=0;right=0;editable=1;overflow=hidden;" parent="PPe2y7tiPpHV3vtK38ji-87" vertex="1">
          <mxGeometry width="30" height="30" as="geometry" />
        </mxCell>
        <mxCell id="PPe2y7tiPpHV3vtK38ji-89" value="img" style="shape=partialRectangle;connectable=0;fillColor=none;top=0;left=0;bottom=0;right=0;align=left;spacingLeft=6;overflow=hidden;" parent="PPe2y7tiPpHV3vtK38ji-87" vertex="1">
          <mxGeometry x="30" width="140" height="30" as="geometry" />
        </mxCell>
        <mxCell id="PPe2y7tiPpHV3vtK38ji-91" value="" style="shape=partialRectangle;collapsible=0;dropTarget=0;pointerEvents=0;fillColor=none;top=0;left=0;bottom=0;right=0;points=[[0,0.5],[1,0.5]];portConstraint=eastwest;" parent="PPe2y7tiPpHV3vtK38ji-15" vertex="1">
          <mxGeometry y="210" width="170" height="30" as="geometry" />
        </mxCell>
        <mxCell id="PPe2y7tiPpHV3vtK38ji-92" value="" style="shape=partialRectangle;connectable=0;fillColor=none;top=0;left=0;bottom=0;right=0;editable=1;overflow=hidden;" parent="PPe2y7tiPpHV3vtK38ji-91" vertex="1">
          <mxGeometry width="30" height="30" as="geometry" />
        </mxCell>
        <mxCell id="PPe2y7tiPpHV3vtK38ji-93" value="stock" style="shape=partialRectangle;connectable=0;fillColor=none;top=0;left=0;bottom=0;right=0;align=left;spacingLeft=6;overflow=hidden;" parent="PPe2y7tiPpHV3vtK38ji-91" vertex="1">
          <mxGeometry x="30" width="140" height="30" as="geometry" />
        </mxCell>
        <mxCell id="PPe2y7tiPpHV3vtK38ji-99" value="" style="shape=partialRectangle;collapsible=0;dropTarget=0;pointerEvents=0;fillColor=none;top=0;left=0;bottom=0;right=0;points=[[0,0.5],[1,0.5]];portConstraint=eastwest;" parent="PPe2y7tiPpHV3vtK38ji-15" vertex="1">
          <mxGeometry y="240" width="170" height="30" as="geometry" />
        </mxCell>
        <mxCell id="PPe2y7tiPpHV3vtK38ji-100" value="FK" style="shape=partialRectangle;connectable=0;fillColor=none;top=0;left=0;bottom=0;right=0;fontStyle=0;overflow=hidden;" parent="PPe2y7tiPpHV3vtK38ji-99" vertex="1">
          <mxGeometry width="30" height="30" as="geometry" />
        </mxCell>
        <mxCell id="PPe2y7tiPpHV3vtK38ji-101" value="id_category" style="shape=partialRectangle;connectable=0;fillColor=none;top=0;left=0;bottom=0;right=0;align=left;spacingLeft=6;fontStyle=0;overflow=hidden;" parent="PPe2y7tiPpHV3vtK38ji-99" vertex="1">
          <mxGeometry x="30" width="140" height="30" as="geometry" />
        </mxCell>
        <mxCell id="PPe2y7tiPpHV3vtK38ji-103" value="" style="shape=partialRectangle;collapsible=0;dropTarget=0;pointerEvents=0;fillColor=none;top=0;left=0;bottom=0;right=0;points=[[0,0.5],[1,0.5]];portConstraint=eastwest;" parent="PPe2y7tiPpHV3vtK38ji-15" vertex="1">
          <mxGeometry y="270" width="170" height="30" as="geometry" />
        </mxCell>
        <mxCell id="PPe2y7tiPpHV3vtK38ji-104" value="FK" style="shape=partialRectangle;connectable=0;fillColor=none;top=0;left=0;bottom=0;right=0;fontStyle=0;overflow=hidden;" parent="PPe2y7tiPpHV3vtK38ji-103" vertex="1">
          <mxGeometry width="30" height="30" as="geometry" />
        </mxCell>
        <mxCell id="PPe2y7tiPpHV3vtK38ji-105" value="id_brand" style="shape=partialRectangle;connectable=0;fillColor=none;top=0;left=0;bottom=0;right=0;align=left;spacingLeft=6;fontStyle=0;overflow=hidden;" parent="PPe2y7tiPpHV3vtK38ji-103" vertex="1">
          <mxGeometry x="30" width="140" height="30" as="geometry" />
        </mxCell>
        <mxCell id="PPe2y7tiPpHV3vtK38ji-122" value="" style="edgeStyle=entityRelationEdgeStyle;fontSize=12;html=1;endArrow=ERoneToMany;startArrow=ERmandOne;entryX=0;entryY=0.5;entryDx=0;entryDy=0;" parent="PPe2y7tiPpHV3vtK38ji-1" target="PPe2y7tiPpHV3vtK38ji-107" edge="1">
          <mxGeometry width="100" height="100" relative="1" as="geometry">
            <mxPoint x="200" y="100" as="sourcePoint" />
            <mxPoint x="310" y="100" as="targetPoint" />
          </mxGeometry>
        </mxCell>
        <mxCell id="PPe2y7tiPpHV3vtK38ji-41" value="users_products" style="shape=table;startSize=30;container=1;collapsible=1;childLayout=tableLayout;fixedRows=1;rowLines=0;fontStyle=1;align=center;resizeLast=1;fillColor=#e1d5e7;strokeColor=#9673a6;" parent="PPe2y7tiPpHV3vtK38ji-1" vertex="1">
          <mxGeometry x="330" y="25" width="180" height="185" as="geometry" />
        </mxCell>
        <mxCell id="PPe2y7tiPpHV3vtK38ji-42" value="" style="shape=partialRectangle;collapsible=0;dropTarget=0;pointerEvents=0;fillColor=none;top=0;left=0;bottom=1;right=0;points=[[0,0.5],[1,0.5]];portConstraint=eastwest;" parent="PPe2y7tiPpHV3vtK38ji-41" vertex="1">
          <mxGeometry y="30" width="180" height="30" as="geometry" />
        </mxCell>
        <mxCell id="PPe2y7tiPpHV3vtK38ji-43" value="PK" style="shape=partialRectangle;connectable=0;fillColor=none;top=0;left=0;bottom=0;right=0;fontStyle=1;overflow=hidden;" parent="PPe2y7tiPpHV3vtK38ji-42" vertex="1">
          <mxGeometry width="30" height="30" as="geometry" />
        </mxCell>
        <mxCell id="PPe2y7tiPpHV3vtK38ji-44" value="id" style="shape=partialRectangle;connectable=0;fillColor=none;top=0;left=0;bottom=0;right=0;align=left;spacingLeft=6;fontStyle=5;overflow=hidden;" parent="PPe2y7tiPpHV3vtK38ji-42" vertex="1">
          <mxGeometry x="30" width="150" height="30" as="geometry" />
        </mxCell>
        <mxCell id="PPe2y7tiPpHV3vtK38ji-107" value="" style="shape=partialRectangle;collapsible=0;dropTarget=0;pointerEvents=0;fillColor=none;top=0;left=0;bottom=0;right=0;points=[[0,0.5],[1,0.5]];portConstraint=eastwest;" parent="PPe2y7tiPpHV3vtK38ji-41" vertex="1">
          <mxGeometry y="60" width="180" height="30" as="geometry" />
        </mxCell>
        <mxCell id="PPe2y7tiPpHV3vtK38ji-108" value="FK" style="shape=partialRectangle;connectable=0;fillColor=none;top=0;left=0;bottom=0;right=0;fontStyle=0;overflow=hidden;" parent="PPe2y7tiPpHV3vtK38ji-107" vertex="1">
          <mxGeometry width="30" height="30" as="geometry" />
        </mxCell>
        <mxCell id="PPe2y7tiPpHV3vtK38ji-109" value="id_users" style="shape=partialRectangle;connectable=0;fillColor=none;top=0;left=0;bottom=0;right=0;align=left;spacingLeft=6;fontStyle=0;overflow=hidden;" parent="PPe2y7tiPpHV3vtK38ji-107" vertex="1">
          <mxGeometry x="30" width="150" height="30" as="geometry" />
        </mxCell>
        <mxCell id="PPe2y7tiPpHV3vtK38ji-48" value="" style="shape=partialRectangle;collapsible=0;dropTarget=0;pointerEvents=0;fillColor=none;top=0;left=0;bottom=0;right=0;points=[[0,0.5],[1,0.5]];portConstraint=eastwest;" parent="PPe2y7tiPpHV3vtK38ji-41" vertex="1">
          <mxGeometry y="90" width="180" height="30" as="geometry" />
        </mxCell>
        <mxCell id="PPe2y7tiPpHV3vtK38ji-49" value="FK" style="shape=partialRectangle;connectable=0;fillColor=none;top=0;left=0;bottom=0;right=0;editable=1;overflow=hidden;" parent="PPe2y7tiPpHV3vtK38ji-48" vertex="1">
          <mxGeometry width="30" height="30" as="geometry" />
        </mxCell>
        <mxCell id="PPe2y7tiPpHV3vtK38ji-50" value="id_products" style="shape=partialRectangle;connectable=0;fillColor=none;top=0;left=0;bottom=0;right=0;align=left;spacingLeft=6;overflow=hidden;" parent="PPe2y7tiPpHV3vtK38ji-48" vertex="1">
          <mxGeometry x="30" width="150" height="30" as="geometry" />
        </mxCell>
        <mxCell id="PPe2y7tiPpHV3vtK38ji-51" value="" style="shape=partialRectangle;collapsible=0;dropTarget=0;pointerEvents=0;fillColor=none;top=0;left=0;bottom=0;right=0;points=[[0,0.5],[1,0.5]];portConstraint=eastwest;" parent="PPe2y7tiPpHV3vtK38ji-41" vertex="1">
          <mxGeometry y="120" width="180" height="30" as="geometry" />
        </mxCell>
        <mxCell id="PPe2y7tiPpHV3vtK38ji-52" value="" style="shape=partialRectangle;connectable=0;fillColor=none;top=0;left=0;bottom=0;right=0;editable=1;overflow=hidden;" parent="PPe2y7tiPpHV3vtK38ji-51" vertex="1">
          <mxGeometry width="30" height="30" as="geometry" />
        </mxCell>
        <mxCell id="PPe2y7tiPpHV3vtK38ji-53" value="cantidadÂ " style="shape=partialRectangle;connectable=0;fillColor=none;top=0;left=0;bottom=0;right=0;align=left;spacingLeft=6;overflow=hidden;" parent="PPe2y7tiPpHV3vtK38ji-51" vertex="1">
          <mxGeometry x="30" width="150" height="30" as="geometry" />
        </mxCell>
        <mxCell id="PPe2y7tiPpHV3vtK38ji-115" value="" style="shape=partialRectangle;collapsible=0;dropTarget=0;pointerEvents=0;fillColor=none;top=0;left=0;bottom=0;right=0;points=[[0,0.5],[1,0.5]];portConstraint=eastwest;" parent="PPe2y7tiPpHV3vtK38ji-41" vertex="1">
          <mxGeometry y="150" width="180" height="30" as="geometry" />
        </mxCell>
        <mxCell id="PPe2y7tiPpHV3vtK38ji-116" value="" style="shape=partialRectangle;connectable=0;fillColor=none;top=0;left=0;bottom=0;right=0;editable=1;overflow=hidden;" parent="PPe2y7tiPpHV3vtK38ji-115" vertex="1">
          <mxGeometry width="30" height="30" as="geometry" />
        </mxCell>
        <mxCell id="PPe2y7tiPpHV3vtK38ji-117" value="price_total" style="shape=partialRectangle;connectable=0;fillColor=none;top=0;left=0;bottom=0;right=0;align=left;spacingLeft=6;overflow=hidden;" parent="PPe2y7tiPpHV3vtK38ji-115" vertex="1">
          <mxGeometry x="30" width="150" height="30" as="geometry" />
        </mxCell>
        <mxCell id="PPe2y7tiPpHV3vtK38ji-124" value="" style="edgeStyle=entityRelationEdgeStyle;fontSize=12;html=1;endArrow=ERoneToMany;startArrow=ERmandOne;" parent="PPe2y7tiPpHV3vtK38ji-1" target="PPe2y7tiPpHV3vtK38ji-48" edge="1" source="PPe2y7tiPpHV3vtK38ji-22">
          <mxGeometry width="100" height="100" relative="1" as="geometry">
            <mxPoint x="580" y="60" as="sourcePoint" />
            <mxPoint x="460" y="160" as="targetPoint" />
          </mxGeometry>
        </mxCell>
        <mxCell id="PPe2y7tiPpHV3vtK38ji-67" value="category" style="shape=table;startSize=30;container=1;collapsible=1;childLayout=tableLayout;fixedRows=1;rowLines=0;fontStyle=1;align=center;resizeLast=1;fillColor=#e1d5e7;strokeColor=#9673a6;" parent="PPe2y7tiPpHV3vtK38ji-1" vertex="1">
          <mxGeometry x="324" y="250" width="180" height="100" as="geometry" />
        </mxCell>
        <mxCell id="PPe2y7tiPpHV3vtK38ji-68" value="" style="shape=partialRectangle;collapsible=0;dropTarget=0;pointerEvents=0;fillColor=none;top=0;left=0;bottom=1;right=0;points=[[0,0.5],[1,0.5]];portConstraint=eastwest;" parent="PPe2y7tiPpHV3vtK38ji-67" vertex="1">
          <mxGeometry y="30" width="180" height="30" as="geometry" />
        </mxCell>
        <mxCell id="PPe2y7tiPpHV3vtK38ji-69" value="PK" style="shape=partialRectangle;connectable=0;fillColor=none;top=0;left=0;bottom=0;right=0;fontStyle=1;overflow=hidden;" parent="PPe2y7tiPpHV3vtK38ji-68" vertex="1">
          <mxGeometry width="30" height="30" as="geometry" />
        </mxCell>
        <mxCell id="PPe2y7tiPpHV3vtK38ji-70" value="id" style="shape=partialRectangle;connectable=0;fillColor=none;top=0;left=0;bottom=0;right=0;align=left;spacingLeft=6;fontStyle=5;overflow=hidden;" parent="PPe2y7tiPpHV3vtK38ji-68" vertex="1">
          <mxGeometry x="30" width="150" height="30" as="geometry" />
        </mxCell>
        <mxCell id="PPe2y7tiPpHV3vtK38ji-71" value="" style="shape=partialRectangle;collapsible=0;dropTarget=0;pointerEvents=0;fillColor=none;top=0;left=0;bottom=0;right=0;points=[[0,0.5],[1,0.5]];portConstraint=eastwest;" parent="PPe2y7tiPpHV3vtK38ji-67" vertex="1">
          <mxGeometry y="60" width="180" height="30" as="geometry" />
        </mxCell>
        <mxCell id="PPe2y7tiPpHV3vtK38ji-72" value="" style="shape=partialRectangle;connectable=0;fillColor=none;top=0;left=0;bottom=0;right=0;editable=1;overflow=hidden;" parent="PPe2y7tiPpHV3vtK38ji-71" vertex="1">
          <mxGeometry width="30" height="30" as="geometry" />
        </mxCell>
        <mxCell id="PPe2y7tiPpHV3vtK38ji-73" value="name" style="shape=partialRectangle;connectable=0;fillColor=none;top=0;left=0;bottom=0;right=0;align=left;spacingLeft=6;overflow=hidden;" parent="PPe2y7tiPpHV3vtK38ji-71" vertex="1">
          <mxGeometry x="30" width="150" height="30" as="geometry" />
        </mxCell>
        <mxCell id="PPe2y7tiPpHV3vtK38ji-28" value="brand" style="shape=table;startSize=30;container=1;collapsible=1;childLayout=tableLayout;fixedRows=1;rowLines=0;fontStyle=1;align=center;resizeLast=1;fillColor=#e1d5e7;strokeColor=#9673a6;" parent="PPe2y7tiPpHV3vtK38ji-1" vertex="1">
          <mxGeometry x="600" y="360" width="180" height="90" as="geometry" />
        </mxCell>
        <mxCell id="PPe2y7tiPpHV3vtK38ji-29" value="" style="shape=partialRectangle;collapsible=0;dropTarget=0;pointerEvents=0;fillColor=none;top=0;left=0;bottom=1;right=0;points=[[0,0.5],[1,0.5]];portConstraint=eastwest;" parent="PPe2y7tiPpHV3vtK38ji-28" vertex="1">
          <mxGeometry y="30" width="180" height="30" as="geometry" />
        </mxCell>
        <mxCell id="PPe2y7tiPpHV3vtK38ji-30" value="PK" style="shape=partialRectangle;connectable=0;fillColor=none;top=0;left=0;bottom=0;right=0;fontStyle=1;overflow=hidden;" parent="PPe2y7tiPpHV3vtK38ji-29" vertex="1">
          <mxGeometry width="30" height="30" as="geometry" />
        </mxCell>
        <mxCell id="PPe2y7tiPpHV3vtK38ji-31" value="id" style="shape=partialRectangle;connectable=0;fillColor=none;top=0;left=0;bottom=0;right=0;align=left;spacingLeft=6;fontStyle=5;overflow=hidden;" parent="PPe2y7tiPpHV3vtK38ji-29" vertex="1">
          <mxGeometry x="30" width="150" height="30" as="geometry" />
        </mxCell>
        <mxCell id="PPe2y7tiPpHV3vtK38ji-32" value="" style="shape=partialRectangle;collapsible=0;dropTarget=0;pointerEvents=0;fillColor=none;top=0;left=0;bottom=0;right=0;points=[[0,0.5],[1,0.5]];portConstraint=eastwest;" parent="PPe2y7tiPpHV3vtK38ji-28" vertex="1">
          <mxGeometry y="60" width="180" height="30" as="geometry" />
        </mxCell>
        <mxCell id="PPe2y7tiPpHV3vtK38ji-33" value="" style="shape=partialRectangle;connectable=0;fillColor=none;top=0;left=0;bottom=0;right=0;editable=1;overflow=hidden;" parent="PPe2y7tiPpHV3vtK38ji-32" vertex="1">
          <mxGeometry width="30" height="30" as="geometry" />
        </mxCell>
        <mxCell id="PPe2y7tiPpHV3vtK38ji-34" value="nameÂ " style="shape=partialRectangle;connectable=0;fillColor=none;top=0;left=0;bottom=0;right=0;align=left;spacingLeft=6;overflow=hidden;" parent="PPe2y7tiPpHV3vtK38ji-32" vertex="1">
          <mxGeometry x="30" width="150" height="30" as="geometry" />
        </mxCell>
        <mxCell id="PPe2y7tiPpHV3vtK38ji-125" value="" style="edgeStyle=entityRelationEdgeStyle;fontSize=12;html=1;endArrow=ERoneToMany;startArrow=ERmandOne;entryX=0;entryY=0.5;entryDx=0;entryDy=0;" parent="PPe2y7tiPpHV3vtK38ji-1" target="PPe2y7tiPpHV3vtK38ji-99" edge="1">
          <mxGeometry width="100" height="100" relative="1" as="geometry">
            <mxPoint x="504" y="300" as="sourcePoint" />
            <mxPoint x="604" y="200" as="targetPoint" />
          </mxGeometry>
        </mxCell>
        <mxCell id="PPe2y7tiPpHV3vtK38ji-126" value="" style="edgeStyle=entityRelationEdgeStyle;fontSize=12;html=1;endArrow=ERoneToMany;startArrow=ERmandOne;exitX=1;exitY=0.5;exitDx=0;exitDy=0;" parent="PPe2y7tiPpHV3vtK38ji-1" source="PPe2y7tiPpHV3vtK38ji-29" edge="1">
          <mxGeometry width="100" height="100" relative="1" as="geometry">
            <mxPoint x="500" y="390" as="sourcePoint" />
            <mxPoint x="600" y="290" as="targetPoint" />
          </mxGeometry>
        </mxCell>
      </root>
    </mxGraphModel>
  </diagram>
</mxfile>
